<svg width="528" height="421" viewBox="0 0 528 421" fill="none" xmlns="http://www.w3.org/2000/svg">
<g clip-path="url(#clip0)">
<path opacity="0.1" d="M5.69916 199.068C14.053 233.42 31.7399 263.116 59.6928 277.508C117.808 307.424 248.791 291.993 346.564 274.286C397.151 265.124 441.584 239.86 473.881 204.259L5.69916 199.068Z" fill="#6C63FF"/>
<path opacity="0.1" d="M518.425 37.374H464.78C462.227 37.374 460.139 35.3662 460.139 32.9128C460.139 30.4594 462.223 28.4516 464.78 28.4516H474.062C471.509 28.4516 469.421 26.4439 469.421 23.9905C469.421 21.5371 471.505 19.5342 474.062 19.5342H467.439C464.887 19.5342 462.798 17.5264 462.798 15.073C462.798 12.6196 464.882 10.6119 467.439 10.6119H495.439C489.224 7.83036 481.98 5.85687 473.598 4.8236C397.248 -4.61292 369.987 1.62586 360.357 8.04583C348.386 16.1304 335.071 21.7453 321.117 24.5928C274.011 33.9412 185.915 45.1896 106.066 20.9886C66.3805 8.96646 36.8868 29.3135 19.2045 63.2546H527.74C527.076 53.3823 525.09 44.264 521.442 36.2868C520.581 36.9965 519.518 37.3794 518.425 37.374Z" fill="#6C63FF"/>
<path opacity="0.1" d="M1.14631 127.366C-0.912069 147.345 -0.210141 167.534 3.23012 187.3L474.238 203.872C487.216 189.565 498.231 173.411 506.962 155.881L1.14631 127.366ZM187.423 170.122H178.141C180.689 170.122 182.782 172.129 182.782 174.583C182.782 177.036 180.694 179.039 178.141 179.039H124.519C121.971 179.039 119.878 177.036 119.878 174.583C119.878 172.129 121.966 170.122 124.519 170.122H133.801C131.253 170.122 129.16 168.114 129.16 165.66C129.16 163.207 131.248 161.199 133.801 161.199H127.169C124.621 161.199 122.528 159.196 122.528 156.743C122.528 154.29 124.616 152.282 127.169 152.282H180.814C183.367 152.282 185.455 154.29 185.455 156.743C185.455 159.196 183.371 161.199 180.814 161.199H187.423C189.976 161.199 192.064 163.207 192.064 165.66C192.064 168.114 189.99 170.122 187.423 170.122Z" fill="#6C63FF"/>
<path opacity="0.1" d="M527.763 63.563L13.5379 75.5949C7.27248 91.0645 3.12804 108.552 1.21594 126.68H518.75C522.12 116.073 524.62 105.179 526.222 94.1203C527.763 83.4644 528.38 73.1611 527.763 63.563ZM105.625 102.989H96.343C98.8909 102.989 100.984 104.997 100.984 107.45C100.984 109.903 98.8956 111.911 96.343 111.911H42.7021C40.1541 111.911 38.061 109.903 38.061 107.45C38.061 104.997 40.1495 102.989 42.7021 102.989H51.9841C49.4362 102.989 47.3431 100.986 47.3431 98.5325C47.3431 96.0791 49.4315 94.0713 51.9841 94.0713H45.3521C42.8042 94.0713 40.7111 92.0635 40.7111 89.6101C40.7111 87.1567 42.7995 85.149 45.3521 85.149H98.9977C101.55 85.149 103.639 87.1567 103.639 89.6101C103.639 92.0635 101.555 94.0713 98.9977 94.0713H105.625C108.173 94.0713 110.266 96.0791 110.266 98.5325C110.266 100.986 108.173 102.989 105.625 102.989Z" fill="#6C63FF"/>
<path opacity="0.1" d="M308.322 375.517C327.604 375.517 343.236 371.814 343.236 367.246C343.236 362.678 327.604 358.975 308.322 358.975C289.039 358.975 273.407 362.678 273.407 367.246C273.407 371.814 289.039 375.517 308.322 375.517Z" fill="#6C63FF"/>
<path opacity="0.1" d="M389.451 398.968C424.239 398.968 452.439 396.526 452.439 393.513C452.439 390.5 424.239 388.058 389.451 388.058C354.664 388.058 326.464 390.5 326.464 393.513C326.464 396.526 354.664 398.968 389.451 398.968Z" fill="#6C63FF"/>
<path opacity="0.1" d="M136.548 393.513C171.336 393.513 199.536 389.81 199.536 385.242C199.536 380.674 171.336 376.971 136.548 376.971C101.761 376.971 73.5602 380.674 73.5602 385.242C73.5602 389.81 101.761 393.513 136.548 393.513Z" fill="#6C63FF"/>
<path opacity="0.1" d="M232.585 352.109C258.76 352.109 279.979 348.406 279.979 343.838C279.979 339.27 258.76 335.567 232.585 335.567C206.41 335.567 185.191 339.27 185.191 343.838C185.191 348.406 206.41 352.109 232.585 352.109Z" fill="#6C63FF"/>
<path d="M268.001 147.072C266.998 139.951 260.867 123.336 260.867 123.336C260.761 122.846 260.64 122.357 260.505 121.867C256.157 106.098 250.137 104.727 250.137 104.727L228.575 99.8303C228.756 99.9495 228.913 100.104 229.039 100.286C228.925 100.297 228.812 100.315 228.7 100.34C227.713 99.1098 227.06 97.6205 226.811 96.0302C226.77 95.7952 226.733 95.5405 226.705 95.3006C228.253 93.7078 229.461 91.784 230.247 89.6583C231.034 87.5325 231.38 85.254 231.263 82.9754C231.146 80.6969 230.569 78.4711 229.57 76.4473C228.57 74.4236 227.173 72.6486 225.47 71.2416C225.243 71.0555 225.006 70.8743 224.779 70.7029C225.795 69.5619 225.828 67.9753 225.066 66.3887C223.368 62.667 219.674 60.3115 215.877 59.1607C212.977 58.2841 209.844 58.0001 206.957 58.9599C205.319 59.5084 203.824 60.429 202.288 61.2468C199.425 62.7551 196.255 63.95 194.115 66.4328C193.614 67.0106 193.15 67.7501 193.299 68.514C193.41 69.082 193.837 69.5228 194.111 70.0272C194.728 71.1584 194.575 72.5834 194.153 73.8174C193.73 75.0515 193.113 76.1974 192.821 77.4608C192.528 78.7242 192.64 80.2129 193.54 81.1189C193.972 81.4704 194.421 81.7974 194.886 82.0983C195.379 82.5413 195.811 83.0538 196.171 83.6212C197.025 84.8292 197.876 86.042 198.724 87.2597C199.921 88.8736 200.99 90.5884 201.922 92.3869C202.557 93.7091 203.049 95.1194 203.899 96.3045C204.148 96.6504 204.433 96.9658 204.748 97.2447L204.497 97.1418C204.866 97.5381 205.308 97.8507 205.796 98.0604C206.284 98.2701 206.807 98.3724 207.333 98.3612C207.379 98.3612 207.421 98.3612 207.463 98.3612C207.657 98.3569 207.842 98.2766 207.983 98.1359C207.983 98.3024 207.983 98.4689 207.983 98.6256C208.034 100.374 208.025 102.235 207.909 103.983L207.709 103.875C207.413 103.72 207.081 103.657 206.752 103.693C206.424 103.73 206.112 103.864 205.853 104.081L186.003 120.887C186.003 120.887 181.687 127.116 182.29 137.87L178.809 153.996C178.809 153.996 174.461 167.678 177.807 177.448C181.153 187.217 183.093 192.805 183.093 192.805C183.093 192.805 184.43 203.906 186.439 204.812C188.449 205.718 189.317 206.208 189.317 206.208L189.716 208.862C189.716 208.862 189.85 209.122 190.087 209.557C191.549 212.241 196.965 221.712 200.112 220.698C200.508 223.27 200.679 225.875 200.622 228.479L203.736 250.54C203.736 250.54 205.908 256.539 205.774 259.683C205.639 262.827 208.308 267.308 208.308 267.308C206.686 270.439 206.211 274.09 206.971 277.567C208.243 283.443 209.849 310.514 209.849 310.514L212.169 317.076L212.104 324.769C211.914 326.024 211.418 327.205 210.665 328.197C209.162 329.921 209.273 331.914 205.648 334.269C202.024 336.625 199.726 337.516 199.726 340.635C199.722 341.07 199.685 341.504 199.615 341.933C199.281 344.225 198.631 345.469 205.296 346.135C213.125 346.918 218.346 341.532 218.346 341.532C218.346 341.532 219.497 339.328 224.918 338.437C224.918 338.437 226.774 338.334 226.872 336.605C226.909 336.008 226.9 334.867 226.872 333.608C226.784 331.214 226.565 328.417 226.278 328.28C225.916 328.109 225.285 325.7 225.066 324.828H226.575C226.575 324.828 227.967 313.726 226.575 306.538C225.182 299.349 226.44 294.251 226.44 294.251L226.171 275.265C226.171 275.265 224.315 273.169 225.772 269.467C227.229 265.765 225.772 247.48 225.772 247.48C225.772 247.48 226.31 240.918 227.846 239.38C229.383 237.842 227.921 229.767 227.846 229.346L230.585 239.037C230.585 239.037 231.787 258.302 234.335 261.789L235.068 270.515C235.068 270.515 240.284 278.546 239.282 282.87C238.279 287.194 240.354 302.835 240.354 302.835V318.824C240.354 318.824 238.01 325.244 241.282 327.551L242.674 327.492C242.21 327.947 241.853 328.633 241.31 329.225C240.683 329.906 240.326 332.497 240.127 334.725C239.959 336.61 239.904 338.231 239.904 338.231C239.904 338.231 241.296 340.582 243.918 340.743C246.54 340.905 255.182 347.839 255.182 347.839C255.182 347.839 263.717 347.839 265.926 347.349L266.056 347.315C266.765 347.08 267.362 346.566 267.722 345.88C268.165 345.084 268.307 344.142 268.121 343.241C267.847 341.865 266.812 340.356 264.52 339.073C258.816 335.9 257.967 332.928 257.967 332.928L254.221 326.997H254.755C254.755 326.997 254.426 320.714 258.5 313.663L258.236 282.601C258.236 282.601 259.907 271.921 257.034 266.123C257.034 266.123 256.797 259.982 258.719 258.096C260.64 256.211 256.161 237.157 256.161 237.157C256.161 237.157 255.233 226.927 254.142 217.593C258.658 222.113 263.341 205.841 264.13 202.946H264.246L264.195 202.736C264.227 202.599 264.246 202.53 264.246 202.53C264.246 202.53 263.244 198.769 263.977 199.533C264.71 200.297 266.52 197.437 266.52 197.437C266.52 197.437 266.251 181.87 269.398 174.025C272.544 166.18 268.001 147.072 268.001 147.072ZM254.542 156.978L254.565 156.934C255.029 166.439 254.477 186.723 254.477 186.723C254.477 186.723 253.855 189.323 253.191 192.384L252.727 173.114L252.263 154.961L254.542 156.978ZM196.942 150.426C196.942 150.426 199.216 180.44 196.942 184.769C196.297 186.003 195.754 188.197 195.304 190.699C194.552 188.618 192.96 183.731 193.531 181.14C194.269 177.791 192.059 168.991 192.059 168.785C192.059 168.579 191.86 163.888 193.452 160.303C195.044 156.719 193.999 155.166 193.999 155.166C193.999 155.166 195.336 149.29 196.942 150.426Z" fill="url(#paint0_linear)"/>
<path d="M202.483 218.024C200.501 227.216 192.621 213.318 190.825 209.983C190.593 209.547 190.463 209.293 190.463 209.293L191.317 205.067L195.833 203.108C196.548 203.502 197.225 203.968 197.856 204.499C200.33 206.55 204.01 210.904 202.483 218.024Z" fill="#D38884"/>
<path d="M263.619 202.986C263.619 202.986 263.619 203.054 263.568 203.191C263.568 203.25 263.531 203.328 263.508 203.412C262.733 206.281 258.138 222.436 253.702 217.951C248.847 213.054 251.205 201.732 251.205 201.732H251.237L261.447 200.63L263.471 202.824L263.619 202.986Z" fill="#D38884"/>
<path d="M257.711 282.488L257.971 313.34C253.966 320.342 254.296 326.561 254.296 326.561L241.097 327.11C237.876 324.823 240.168 318.452 240.168 318.452V302.566C240.168 302.566 238.131 287.048 239.115 282.748C240.099 278.448 234.98 270.505 234.98 270.505L234.256 261.843C231.759 258.381 230.575 239.258 230.575 239.258L227.897 229.601C227.972 230.017 229.364 238.078 227.897 239.561C226.431 241.045 225.86 247.597 225.86 247.597C225.86 247.597 227.303 265.755 225.86 269.423C224.417 273.091 226.25 275.177 226.25 275.177L226.514 294.026C226.514 294.026 225.266 299.084 226.644 306.219C228.023 313.354 226.644 324.377 226.644 324.377H212.485L212.55 316.684L210.257 310.171C210.257 310.171 208.679 283.287 207.431 277.464C206.683 274.014 207.148 270.394 208.739 267.278C208.739 267.278 206.117 262.847 206.247 259.727C206.377 256.608 204.224 250.658 204.224 250.658L201.17 228.763C201.254 224.55 200.744 220.346 199.657 216.291C197.884 210.052 195.257 201.874 195.257 201.874L198.223 202.153L213.185 203.559C213.185 203.559 249.566 200.978 251.195 203.123C251.539 203.824 251.771 204.58 251.882 205.361C253.516 213.103 255.674 237.358 255.674 237.358C255.674 237.358 260.074 256.275 258.185 258.145C256.296 260.016 256.528 266.108 256.528 266.108C259.359 271.862 257.711 282.488 257.711 282.488Z" fill="#444053"/>
<path d="M226.955 336.076C226.853 337.795 225.039 337.898 225.039 337.898C219.72 338.779 218.588 340.963 218.588 340.963C218.588 340.963 213.482 346.316 205.783 345.537C199.239 344.871 199.875 343.642 200.214 341.365C200.28 340.941 200.315 340.512 200.321 340.082C200.321 336.963 202.585 336.076 206.131 333.716C209.677 331.356 209.579 329.402 211.055 327.688C212.531 325.974 212.684 322.649 212.684 322.649C214.355 319.578 218.592 323.138 218.592 323.138C218.792 324.226 225.09 324.074 225.09 324.074C225.09 324.074 225.925 327.609 226.357 327.815C226.64 327.952 226.853 330.724 226.937 333.104C226.983 334.353 226.992 335.484 226.955 336.076Z" fill="#B07473"/>
<path opacity="0.1" d="M226.955 336.076C226.853 337.795 225.039 337.898 225.039 337.898C219.72 338.779 218.588 340.963 218.588 340.963C218.588 340.963 213.482 346.316 205.783 345.537C199.239 344.871 199.875 343.642 200.214 341.365C203.138 342.129 208.725 343.196 211.988 341.326C216.522 338.73 219.776 336.918 219.776 336.918L226.941 333.114C226.983 334.352 226.992 335.484 226.955 336.076Z" fill="black"/>
<path d="M267.04 345.327C266.691 346.007 266.105 346.518 265.406 346.752L265.281 346.786C263.114 347.276 254.736 347.276 254.736 347.276C254.736 347.276 246.267 340.366 243.705 340.209C241.143 340.053 239.765 337.712 239.765 337.712C239.765 337.712 239.816 336.106 239.978 334.235C240.178 332.022 240.526 329.451 241.143 328.775C242.275 327.526 242.535 325.837 245.083 326.904C245.083 326.904 248.722 320.137 253.01 325.367L257.447 332.467C257.447 332.467 258.282 335.405 263.903 338.593C266.149 339.867 267.151 341.365 267.434 342.731C267.613 343.618 267.472 344.543 267.04 345.327Z" fill="#B07473"/>
<path opacity="0.1" d="M267.04 345.327C266.539 345.772 265.986 346.252 265.406 346.752L265.281 346.786C263.114 347.276 254.736 347.276 254.736 347.276C254.736 347.276 246.267 340.366 243.705 340.209C241.143 340.052 239.765 337.712 239.765 337.712C239.765 337.712 239.816 336.106 239.978 334.235C242.586 335.058 246.536 336.512 247.594 338.079C249.218 340.464 254.152 343.794 254.152 343.794C254.152 343.794 263.35 342.858 267.434 342.731C267.613 343.618 267.472 344.543 267.04 345.327Z" fill="black"/>
<path d="M231.244 103.518L219.131 117.028C219.131 117.028 204.451 115.887 207.013 111.314C208.317 108.983 208.521 104.105 208.405 99.8645C208.298 95.7755 207.899 92.2937 207.899 92.2937C207.899 92.2937 228.487 81.4811 226.927 91.5641C226.592 93.464 226.573 95.4112 226.872 97.318C227.749 102.411 231.244 103.518 231.244 103.518Z" fill="#D38884"/>
<path opacity="0.1" d="M226.909 91.5641C226.573 93.464 226.554 95.4112 226.853 97.318C225.445 98.8237 223.767 100.019 221.917 100.833C220.067 101.648 218.082 102.066 216.077 102.063C213.292 102.063 210.28 99.649 208.029 98.2534C207.922 94.1595 207.899 92.2937 207.899 92.2937C207.899 92.2937 228.487 81.4811 226.909 91.5641Z" fill="black"/>
<path d="M231.244 85.2226C231.245 88.8496 230.079 92.3695 227.936 95.2059C225.794 98.0422 222.802 100.027 219.451 100.835C216.1 101.642 212.588 101.225 209.491 99.6519C206.394 98.0786 203.895 95.4421 202.403 92.1743C200.912 88.9065 200.516 85.2011 201.281 81.6651C202.046 78.129 203.927 74.972 206.615 72.711C209.302 70.45 212.638 69.2191 216.076 69.22C219.513 69.2208 222.848 70.4533 225.535 72.7157C227.315 74.2146 228.753 76.1171 229.741 78.2823C230.729 80.4474 231.243 82.8195 231.244 85.2226Z" fill="#D38884"/>
<path opacity="0.1" d="M251.882 205.361C248.104 214.846 223.804 215.042 223.804 215.042V204.7L222.333 204.597C222.969 207.559 221.442 214.782 221.442 214.782C202.237 217.642 197.554 206.095 197.554 206.095L198.223 202.143L213.185 203.549C213.185 203.549 249.566 200.968 251.195 203.113C251.54 203.817 251.772 204.577 251.882 205.361Z" fill="black"/>
<path d="M223.804 213.793V203.451L222.333 203.353C222.969 206.291 221.442 213.538 221.442 213.538C206.99 215.688 200.761 209.685 198.566 206.58C198.171 206.045 197.832 205.467 197.554 204.856L203.421 170.038L204.813 118.796L206.915 109.805L207.403 105.491V105.442H207.454L208.948 106.118L217.891 110.197L228.051 102.102L228.199 101.99L228.705 101.583L229.545 102.293L231.633 104.061L238.33 149.696C238.33 149.696 249.933 184.832 252.105 199.014C252.193 199.582 252.263 200.111 252.319 200.605C253.753 213.553 223.804 213.793 223.804 213.793Z" fill="white"/>
<path d="M218.977 112.117C219.454 112.117 219.841 111.709 219.841 111.206C219.841 110.703 219.454 110.295 218.977 110.295C218.501 110.295 218.114 110.703 218.114 111.206C218.114 111.709 218.501 112.117 218.977 112.117Z" fill="#67647E"/>
<path d="M219.377 120.432C219.853 120.432 220.24 120.024 220.24 119.521C220.24 119.018 219.853 118.61 219.377 118.61C218.9 118.61 218.513 119.018 218.513 119.521C218.513 120.024 218.9 120.432 219.377 120.432Z" fill="#67647E"/>
<path d="M220.24 133.894C220.717 133.894 221.103 133.486 221.103 132.983C221.103 132.48 220.717 132.072 220.24 132.072C219.763 132.072 219.377 132.48 219.377 132.983C219.377 133.486 219.763 133.894 220.24 133.894Z" fill="#67647E"/>
<path d="M221.665 148.394C222.141 148.394 222.528 147.986 222.528 147.483C222.528 146.98 222.141 146.572 221.665 146.572C221.188 146.572 220.801 146.98 220.801 147.483C220.801 147.986 221.188 148.394 221.665 148.394Z" fill="#67647E"/>
<path d="M222.528 162.007C223.005 162.007 223.391 161.6 223.391 161.097C223.391 160.594 223.005 160.186 222.528 160.186C222.051 160.186 221.665 160.594 221.665 161.097C221.665 161.6 222.051 162.007 222.528 162.007Z" fill="#67647E"/>
<path d="M223.391 176.507C223.868 176.507 224.254 176.1 224.254 175.597C224.254 175.094 223.868 174.686 223.391 174.686C222.914 174.686 222.528 175.094 222.528 175.597C222.528 176.1 222.914 176.507 223.391 176.507Z" fill="#67647E"/>
<path d="M223.048 190.851C223.524 190.851 223.911 190.443 223.911 189.94C223.911 189.437 223.524 189.029 223.048 189.029C222.571 189.029 222.184 189.437 222.184 189.94C222.184 190.443 222.571 190.851 223.048 190.851Z" fill="#67647E"/>
<path opacity="0.1" d="M207.978 175.102C207.978 175.102 207.013 188.437 205.24 192.315C203.467 196.194 202.678 207.075 202.678 207.075L198.562 206.585C198.167 206.05 197.828 205.472 197.55 204.861L203.416 170.044L204.808 118.801L206.915 109.806L207.403 105.491L207.458 105.467C207.688 105.352 207.94 105.295 208.194 105.299C208.449 105.303 208.699 105.369 208.925 105.491L209.12 105.599C209.061 105.775 209.005 105.957 208.953 106.143C207.347 111.446 206.748 121.22 206.748 121.22C206.748 121.22 209.069 139.099 209.31 147.415C209.551 155.73 207.978 175.102 207.978 175.102Z" fill="black"/>
<path opacity="0.1" d="M197.856 204.513C197.811 204.625 197.758 204.733 197.698 204.837C196.102 207.682 192.055 209.489 190.825 209.983C190.593 209.547 190.463 209.293 190.463 209.293L191.317 205.067L195.833 203.108C196.548 203.507 197.226 203.977 197.856 204.513Z" fill="black"/>
<path d="M186.917 136.465L183.172 138.82L179.761 154.829C179.761 154.829 175.491 168.408 178.772 178.109C182.053 187.81 183.961 193.363 183.961 193.363C183.961 193.363 185.274 204.381 187.247 205.282C189.219 206.183 190.068 206.668 190.068 206.668L190.463 209.303C190.463 209.303 195.809 207.388 197.698 204.014C199.587 200.64 196.306 192.261 196.306 192.261C196.306 192.261 193.484 185.121 194.208 181.796C194.932 178.471 192.76 169.74 192.76 169.554C192.76 169.368 192.565 164.701 194.153 161.131C195.74 157.561 194.682 156.038 194.682 156.038L193.693 145.852L186.917 136.465Z" fill="#67647E"/>
<path opacity="0.1" d="M252.193 202.364C252.193 202.364 242.275 206.311 239.124 202.853C235.973 199.396 236.298 183.172 236.298 183.172C236.298 183.172 233.281 153.237 231.374 148.32C229.466 143.404 230.445 107.92 230.445 107.92C230.445 107.92 229.164 103.332 228.046 102.132C227.975 102.055 227.896 101.987 227.809 101.931L228.194 102.019L229.54 102.323L231.629 104.091L238.326 149.726C238.326 149.726 249.928 184.862 252.1 199.044L252.193 202.364Z" fill="black"/>
<path opacity="0.1" d="M263.619 203.402H263.508C262.26 203.573 251.242 204.979 251.195 202.56C251.194 202.28 251.208 202 251.237 201.722L261.447 200.62L263.471 202.814C263.508 202.956 263.536 203.079 263.564 203.177L263.619 203.402Z" fill="black"/>
<path d="M253.047 120.432L260.287 124.418C260.287 124.418 266.321 140.901 267.286 147.968C267.286 147.968 271.755 166.9 268.678 174.686C265.601 182.472 265.856 197.927 265.856 197.927C265.856 197.927 264.084 200.767 263.36 200.008C262.636 199.249 263.624 202.986 263.624 202.986C263.624 202.986 251.246 204.719 251.195 202.153C251.144 199.587 254.036 187.325 254.036 187.325C254.036 187.325 254.825 158.153 253.706 153.58C252.588 149.006 253.047 120.432 253.047 120.432Z" fill="#67647E"/>
<path opacity="0.1" d="M231.443 151.503C231.443 151.503 227.368 162.032 226.055 162.727C224.742 163.423 226.32 166.19 226.32 166.19C226.32 166.19 233.74 155.245 231.443 151.503Z" fill="black"/>
<path opacity="0.1" d="M229.011 114.57C229.058 114.37 224.152 119.648 222.839 120.447C221.525 121.245 227.633 120.398 229.011 114.57Z" fill="black"/>
<path opacity="0.1" d="M215.353 150.671C215.353 150.671 207.867 155.778 208.855 157.801C209.844 159.823 215.353 150.671 215.353 150.671Z" fill="black"/>
<path opacity="0.1" d="M228.946 225.228C228.946 225.228 235.318 229.552 245.232 230.614L228.946 225.228Z" fill="black"/>
<path opacity="0.1" d="M213.645 235.624C213.645 235.624 219.553 243.459 222.249 243.66C224.946 243.861 213.645 235.624 213.645 235.624Z" fill="black"/>
<path opacity="0.1" d="M221.92 266.328C221.655 266.465 218.569 273.395 215.422 273.605C212.276 273.816 221.92 266.328 221.92 266.328Z" fill="black"/>
<path opacity="0.1" d="M249.302 281.509C249.302 281.509 255.159 280.123 256.463 284.555C256.463 284.54 256.068 283.154 249.302 281.509Z" fill="black"/>
<path opacity="0.1" d="M245.362 306.856C245.362 306.856 252.458 305.328 253.966 307.409C255.474 309.49 245.362 306.856 245.362 306.856Z" fill="black"/>
<path opacity="0.1" d="M225.289 310.401C225.289 310.47 218.068 311.929 218.328 312.899C218.588 313.868 226.032 313.731 226.296 312.203C226.344 312.015 226.355 311.819 226.33 311.626C226.305 311.433 226.244 311.248 226.15 311.08C226.056 310.912 225.932 310.766 225.784 310.65C225.636 310.533 225.468 310.449 225.289 310.401Z" fill="black"/>
<path opacity="0.1" d="M242.999 316.973C242.999 316.973 254.866 315.445 254.138 318.08C253.409 320.714 242.999 316.973 242.999 316.973Z" fill="black"/>
<path opacity="0.1" d="M180.875 162.727C180.94 162.933 188.69 164.045 189.739 166.679C189.739 166.679 182.123 162.933 180.921 162.933" fill="black"/>
<path opacity="0.1" d="M191.776 184.137C191.776 184.137 185.339 186.287 185.799 189.524C186.258 192.761 185.144 188.025 191.776 184.137Z" fill="black"/>
<path opacity="0.1" d="M188.778 200.63C188.778 200.63 191.122 197.236 193.354 197.858C195.587 198.48 188.778 200.63 188.778 200.63Z" fill="black"/>
<path opacity="0.1" d="M225.535 72.7156C225.31 72.9464 225.057 73.1455 224.783 73.3081C222.927 74.4491 222.416 76.2071 221.535 78.2345C220.713 80.0905 219.808 82.0542 218.151 83.107C216.012 84.4684 213.195 83.9689 210.972 85.154C209.985 85.6961 209.174 86.5376 208.645 87.5702C208.116 88.6027 207.891 89.7789 208.001 90.9471C208.143 91.8486 208.354 92.7363 208.633 93.6013C209.138 95.4743 209.367 97.4185 209.31 99.3651C209.315 99.4221 209.315 99.4794 209.31 99.5365C207.408 98.5338 205.727 97.1203 204.376 95.3878C203.026 93.6553 202.035 91.6425 201.469 89.4799C200.903 87.3174 200.775 85.0535 201.091 82.8351C201.408 80.6167 202.164 78.4934 203.309 76.603C204.454 74.7125 205.962 73.0972 207.737 71.8619C209.512 70.6265 211.513 69.7987 213.611 69.4321C215.708 69.0655 217.856 69.1684 219.913 69.7341C221.971 70.2998 223.892 71.3156 225.554 72.7156H225.535Z" fill="black"/>
<path d="M225.141 67.897C223.475 64.2047 219.85 61.8639 216.123 60.7229C213.278 59.8561 210.187 59.5721 207.366 60.527C205.755 61.0657 204.293 61.9961 202.785 62.7943C199.972 64.2928 196.882 65.4779 194.765 67.9411C194.269 68.514 193.837 69.2486 193.962 70.0076C194.069 70.5708 194.487 70.987 194.756 71.5061C195.364 72.6324 195.22 74.0477 194.798 75.2719C194.375 76.4962 193.777 77.6323 193.489 78.8908C193.201 80.1493 193.313 81.6233 194.194 82.5195C194.589 82.9161 195.095 83.1659 195.522 83.4989C196.004 83.9387 196.427 84.4462 196.779 85.0071L199.286 88.6211C200.463 90.2227 201.512 91.9245 202.423 93.7091C203.045 95.0215 203.527 96.422 204.363 97.5924C205.198 98.7628 206.498 99.703 207.881 99.5757C207.988 99.5786 208.094 99.5548 208.191 99.5063C208.288 99.4578 208.372 99.386 208.438 99.2966C208.489 99.182 208.513 99.0559 208.507 98.9293C208.568 96.9899 208.345 95.0522 207.844 93.1851C207.564 92.3203 207.353 91.4325 207.212 90.531C207.106 89.3632 207.331 88.1883 207.86 87.1564C208.389 86.1245 209.198 85.2825 210.183 84.7378C212.41 83.5527 215.227 84.0522 217.362 82.6958C219.024 81.638 219.929 79.6743 220.746 77.7988C221.641 75.7714 222.138 74.0134 223.994 72.8724C225.851 71.7314 226.064 69.8411 225.141 67.897Z" fill="#585268"/>
<path opacity="0.1" d="M218.346 329.529C218.346 329.529 220.667 332.648 220.063 334.426C219.46 336.204 218.346 329.529 218.346 329.529Z" fill="black"/>
<path opacity="0.1" d="M249.743 337.335C249.743 337.335 250.258 333.153 252.323 333.114C254.388 333.074 254.491 332.888 256.069 333.53C257.646 334.171 259.127 335.165 258.654 335.312C258.18 335.459 255.939 332.923 253.637 334.22C252.2 335.05 250.888 336.099 249.743 337.335Z" fill="black"/>
<path opacity="0.1" d="M211.422 115.442L217.919 110.638C217.919 110.638 208.414 104.713 207.282 105.545C206.15 106.378 205.37 113.87 205.37 113.87L211.422 115.442Z" fill="black"/>
<path d="M211.394 115.133L217.891 110.236C217.891 110.236 208.387 104.311 207.254 105.143C206.122 105.976 205.342 113.88 205.342 113.88L211.394 115.133Z" fill="#E1E7EF"/>
<path d="M211.394 115.133L217.891 110.236C217.891 110.236 208.387 104.311 207.254 105.143C206.122 105.976 205.342 113.88 205.342 113.88L211.394 115.133Z" fill="#66666F"/>
<path d="M208.331 105.183L208.136 105.08C207.846 104.924 207.52 104.86 207.196 104.895C206.872 104.931 206.565 105.065 206.312 105.281L186.82 121.965C186.82 121.965 182.582 128.15 183.172 138.82L194.668 156.004C194.668 156.004 195.981 150.186 197.554 151.293C197.554 151.293 199.787 181.091 197.554 185.386C195.322 189.68 194.338 205.757 194.338 205.757L201.889 206.658C201.889 206.658 202.678 195.777 204.451 191.899C206.224 188.02 207.189 174.686 207.189 174.686C207.189 174.686 208.786 155.313 208.521 146.998C208.257 138.683 205.959 120.804 205.959 120.804C205.959 120.804 206.604 110.324 208.331 105.183Z" fill="#67647E"/>
<path opacity="0.1" d="M227.749 112.406L219.65 109.242C219.65 109.242 229.963 97.323 231.253 103.934L227.749 112.406Z" fill="black"/>
<path d="M227.749 111.989L219.65 108.826C219.65 108.826 229.963 96.9067 231.253 103.518L227.749 111.989Z" fill="#E1E7EF"/>
<path d="M227.749 111.989L219.65 108.826C219.65 108.826 229.963 96.9067 231.253 103.518L227.749 111.989Z" fill="#6D6C81"/>
<path opacity="0.1" d="M227.484 101.848C227.601 101.828 227.721 101.856 227.819 101.926L227.484 101.848Z" fill="black"/>
<path d="M228.264 101.02L249.752 105.917C249.752 105.917 255.665 107.303 259.934 122.964C264.204 138.624 254.087 157.811 254.087 157.811L251.854 155.808L252.973 201.541C252.973 201.541 243.055 205.488 239.904 202.031C236.753 198.573 237.082 182.335 237.082 182.335C237.082 182.335 234.061 152.404 232.153 147.483C230.246 142.561 231.225 107.088 231.225 107.088C231.225 107.088 229.471 100.746 228.264 101.02Z" fill="#67647E"/>
<path opacity="0.1" d="M247.924 130.162C247.622 130.456 247.269 144.295 248.583 154.828C249.385 161.243 250.626 167.588 252.295 173.814L250.346 131.617C250.346 131.617 248.842 129.261 247.924 130.162Z" fill="black"/>
<path opacity="0.1" d="M245.297 118.243C245.821 118.591 248.123 124.34 247.07 126.695C246.016 129.051 245.297 118.243 245.297 118.243Z" fill="black"/>
<path opacity="0.1" d="M225.015 67.897C223.961 65.7051 222.317 63.8895 220.291 62.6768C221.798 63.8152 223.014 65.3293 223.832 67.0841C224.76 69.0429 224.486 71.0017 222.681 72.0741C220.876 73.1465 220.314 74.9731 219.432 77.0005C218.611 78.8564 217.706 80.8201 216.044 81.8975C213.909 83.2589 211.092 82.7545 208.865 83.9395C207.88 84.4861 207.072 85.3292 206.543 86.3616C206.014 87.3941 205.788 88.5693 205.894 89.7376C206.037 90.6376 206.25 91.5236 206.53 92.3869C207.035 94.2599 207.264 96.204 207.208 98.1506C207.212 98.2776 207.186 98.4038 207.133 98.5179C207.069 98.6078 206.986 98.6801 206.89 98.7287C206.794 98.7773 206.688 98.8007 206.581 98.797C206.024 98.842 205.466 98.7323 204.961 98.4787C205.327 98.8609 205.762 99.1601 206.241 99.3581C206.72 99.556 207.232 99.6483 207.746 99.6295C207.83 99.6424 207.915 99.6346 207.995 99.6068C208.076 99.579 208.149 99.532 208.209 99.4693C208.27 99.4067 208.315 99.3303 208.343 99.2459C208.37 99.1615 208.379 99.0716 208.368 98.9831C208.428 97.0367 208.201 95.0922 207.695 93.2193C207.412 92.3553 207.199 91.4674 207.059 90.5652C206.952 89.3974 207.178 88.2225 207.707 87.1906C208.236 86.1587 209.045 85.3167 210.029 84.772C212.257 83.5869 215.074 84.0864 217.209 82.73C218.871 81.6722 219.776 79.7085 220.592 77.833C221.488 75.8056 221.985 74.0476 223.841 72.9066C225.698 71.7656 225.944 69.8411 225.015 67.897Z" fill="black"/>
<path d="M357.224 129.394C350.829 129.261 345.185 124.497 341.988 118.674C341.149 117.289 340.622 115.719 340.447 114.086C340.469 113.714 340.528 113.347 340.623 112.989C340.819 112.442 340.974 111.881 341.087 111.309C341.113 111.081 341.113 110.851 341.087 110.623C341.087 110.623 341.087 110.623 341.087 110.584C341.241 109.345 340.549 108.136 339.695 107.288C338.841 106.441 337.769 105.819 336.878 104.977C334.131 102.431 333.295 98.3466 333.244 94.4584V94.2527C333.277 92.5877 333.402 90.9178 333.388 89.2528C333.41 88.3077 333.371 87.362 333.272 86.4224C333.007 84.0669 332.158 81.6674 330.404 80.164C325.828 76.2464 318.133 80.3256 313.394 76.6235C312.243 75.7175 311.311 74.3807 309.914 74.0281C308.86 73.7587 307.765 74.1211 306.735 74.4835C303.244 75.698 299.351 77.2944 297.986 80.8496C297.206 82.8916 297.425 85.2226 296.71 87.2891C296.246 88.675 295.359 89.865 294.714 91.1774C294.185 92.1654 293.928 93.29 293.972 94.4241C293.914 95.0112 293.992 95.6043 294.199 96.1527C294.442 96.8138 294.832 97.4034 295.336 97.8716C295.154 98.2805 294.927 98.6652 294.659 99.0175C293.768 100.168 292.398 100.976 291.47 102.122C289.753 104.223 289.818 107.078 290.663 109.546C291.507 112.014 293.034 114.262 294.088 116.666C294.552 117.709 294.905 118.875 294.436 119.913C294.106 120.633 293.424 121.181 292.895 121.803C292.121 122.719 291.634 123.865 291.503 125.084C281.056 127.601 281.046 136.46 281.046 136.46L275.403 151.435C275.403 151.435 274.498 153.957 273.435 157.287L266.757 156.023L271.398 164.221C270.521 167.561 269.899 170.656 270.103 172.213C270.103 172.213 268.028 182.497 271.718 184.294L279.858 188.158C280.211 188.386 280.59 188.565 280.986 188.691L281.316 188.848C281.434 188.909 281.564 188.94 281.696 188.94C281.828 188.94 281.958 188.909 282.077 188.848H282.1H282.188C282.346 188.859 282.504 188.834 282.652 188.775C282.834 188.672 282.977 188.508 283.061 188.309C283.058 188.293 283.058 188.277 283.061 188.26L285.497 187.516L287.562 190.097C288.491 190.787 289.419 191.385 290.296 191.923L287.098 225.429C287.098 225.429 286.583 269.991 285.024 280.148C284.448 283.909 284.444 286.475 284.662 288.218L284.601 288.326C284.987 291.19 285.994 291.754 285.994 291.754V291.714C286.012 291.73 286.033 291.743 286.054 291.754C286.524 290.453 287.082 289.189 287.725 287.973C287.725 288.213 287.725 288.463 287.725 288.708C287.692 292.488 287.581 297.782 287.21 301.224C286.579 307.101 288.825 326.468 288.825 326.468L289.6 344.098C289.726 347.091 289.068 350.063 287.697 352.687C285.841 356.208 283.469 361.164 283.297 363.362C283.288 363.481 283.288 363.601 283.297 363.72L279.315 368.774C279.315 368.774 277.761 371.31 281.274 372.334C283.163 372.887 286.421 372.334 289.038 371.682C290.181 371.405 291.201 370.727 291.931 369.759C292.662 368.792 293.061 367.592 293.062 366.354C293.724 363.926 294.841 361.663 296.348 359.699L297.002 363.759L301.383 364.905L301.945 353.779C302.171 353.155 302.274 352.488 302.247 351.82C303.11 343.907 300.214 344.617 300.214 344.617C300.291 344.686 300.341 344.784 300.353 344.891L300.214 344.622C298.436 340.919 299.286 334.828 299.286 334.828C299.286 334.828 301.606 317.198 302.4 312.541C302.971 309.251 302.734 298.477 302.544 292.464C302.544 292.214 302.544 291.974 302.52 291.734C309.315 291.641 317.641 291.401 323.484 290.804V291.528L322.407 333.177C322.333 335.833 321.821 338.454 320.894 340.924C320.894 340.973 320.862 341.017 320.843 341.066C319.562 344.555 318.839 348.243 318.704 351.982L318.202 365.204V365.571C317.33 365.924 315.952 366.947 315.914 369.915C315.854 374.263 323.117 372.814 323.117 372.814C330.376 372.814 330.436 364.841 330.436 364.841C330.436 364.841 330.664 357.53 331.012 352.638C331.36 347.746 329.916 348.823 329.916 348.823L329.805 362.74C329.805 362.775 329.805 362.809 329.805 362.848V350.65L329.916 348.882V348.833V348.456L330.831 334.103C330.831 334.103 337.518 310.186 338.553 305.597C339.291 302.336 338.985 292.513 338.744 287.082C338.744 286.832 338.744 286.592 338.707 286.362C340.781 286.166 342.614 286.147 343.348 286.147H343.686C343.686 286.147 343.343 247.734 342.475 233.259C341.607 218.783 340.229 205.537 336.771 201.551C334.683 199.142 331.773 191.703 329.81 186.194C333.937 188.077 338.22 189.552 342.605 190.601C353.553 193.02 352.054 182.991 352.054 182.991L350.945 164.025H351.019C350.979 159.057 350.575 154.1 349.813 149.197C349.232 145.436 348.346 141.548 346.991 138.424C348.179 137.934 349.353 137.41 350.504 136.871C353.479 135.485 356.83 133.522 357.257 130.138H357.113C357.17 129.894 357.207 129.645 357.224 129.394ZM289.359 156.817C289.382 158.776 289.312 162.174 289.201 165.93L285.725 161.033L289.21 155.069L289.359 156.817ZM337.384 174.172L331.592 172.213C332.619 170.522 333.819 168.955 335.17 167.541L335.671 167.051L335.49 167.091L335.769 166.821L335.936 166.782L335.671 167.051L335.987 166.983C336.335 168.518 337.01 169.95 337.959 171.17C340.039 173.564 337.388 174.172 337.388 174.172H337.384Z" fill="url(#paint1_linear)"/>
<path d="M302.2 350.459L301.523 364.014L297.202 362.873L296.292 357.236L302.2 350.459Z" fill="#A27772"/>
<path opacity="0.1" d="M302.2 350.459L301.523 364.014L297.202 362.873L296.292 357.236L302.2 350.459Z" fill="black"/>
<path d="M318.059 365.811L324.649 367.251L329.536 362.696V349.861L329.647 348.108V348.054V347.682L330.557 333.417C330.557 333.417 337.152 309.672 338.178 305.113C338.902 301.881 338.6 292.126 338.358 286.734C338.261 284.526 338.178 283.047 338.178 283.047L323.628 279.33L323.322 291.132L322.259 332.482C322.185 335.118 321.681 337.72 320.769 340.175L320.718 340.317C319.453 343.78 318.739 347.44 318.606 351.149L318.114 364.298V364.66L318.059 365.811Z" fill="#CC818C"/>
<path opacity="0.1" d="M318.059 365.811L324.649 367.25L329.536 362.696V361.604C329.52 361.846 329.448 362.08 329.325 362.285C329.203 362.49 329.035 362.66 328.835 362.78L328.765 362.824C326.495 364.09 323.923 364.626 321.368 364.366L318.797 364.136C318.562 364.159 318.332 364.219 318.114 364.312V364.675L318.059 365.811Z" fill="black"/>
<path d="M328.766 363.181L328.835 363.142C329.05 363.015 329.228 362.83 329.353 362.606C329.478 362.383 329.544 362.128 329.545 361.869L329.652 348.054C329.652 348.054 331.072 346.982 330.729 351.84C330.385 356.697 330.162 363.955 330.162 363.955C330.162 363.955 330.107 371.868 322.946 371.868C322.946 371.868 315.785 373.308 315.84 368.989C315.896 364.67 318.797 364.493 318.797 364.493L321.368 364.729C323.924 364.989 326.497 364.451 328.766 363.181Z" fill="#B07473"/>
<path d="M283.734 362.872C283.901 365.992 292.598 364.19 292.598 364.19L298.45 352.202C298.45 352.202 303.337 348.24 300.891 344.763C300.761 344.574 300.641 344.376 300.534 344.171C300.534 344.171 300.534 344.171 300.511 344.141C300.46 344.053 300.413 343.96 300.367 343.862C298.613 340.19 299.476 334.166 299.476 334.166C299.476 334.166 301.745 316.655 302.544 312.037C303.105 308.775 302.873 298.075 302.688 292.091C302.613 289.604 302.544 287.934 302.544 287.934L288.105 283.854C288.105 283.854 288.105 285.755 288.105 288.399C288.073 292.155 287.962 297.409 287.595 300.828C286.973 306.64 289.187 325.89 289.187 325.89L289.953 343.407C290.085 346.375 289.443 349.324 288.096 351.933C286.286 355.429 283.919 360.355 283.757 362.535C283.741 362.646 283.733 362.759 283.734 362.872Z" fill="#CC818C"/>
<path opacity="0.1" d="M283.734 362.872C283.901 365.992 292.598 364.19 292.598 364.19L298.45 352.202C298.45 352.202 303.337 348.24 300.891 344.763C300.761 344.574 300.641 344.376 300.534 344.171C300.455 345.988 298.566 350.537 298.566 350.537C298.566 350.537 293.735 360.737 292.199 363.073C290.663 365.409 283.989 362.637 283.738 362.539C283.729 362.65 283.727 362.762 283.734 362.872Z" fill="black"/>
<path d="M300.367 343.848C300.367 343.848 303.226 343.148 302.372 351.002C302.404 351.895 302.212 352.78 301.815 353.569C301.418 354.358 300.831 355.022 300.112 355.493C298.065 356.849 294.909 359.768 293.313 365.444C293.314 366.668 292.923 367.857 292.202 368.818C291.482 369.778 290.475 370.453 289.345 370.732C286.764 371.369 283.548 371.927 281.687 371.379C278.22 370.36 279.756 367.843 279.756 367.843L283.734 362.863C283.734 362.863 290.667 365.742 292.199 363.402C293.73 361.061 298.566 350.87 298.566 350.87C298.566 350.87 301.216 344.509 300.367 343.848Z" fill="#B07473"/>
<path opacity="0.1" d="M323.628 280.784L323.322 292.586C327.197 292.189 329.972 291.636 330.446 290.857C331.471 289.183 335.193 288.477 338.358 288.188C338.261 285.98 338.177 284.501 338.177 284.501L323.628 280.784Z" fill="black"/>
<path opacity="0.1" d="M288.105 289.834C288.476 289.034 289.022 288.339 289.697 287.806C291.229 286.91 291.062 293.565 291.062 293.565C291.062 293.565 296.167 293.614 302.688 293.526C302.613 291.038 302.544 289.364 302.544 289.364L288.105 285.289C288.105 285.289 288.133 287.18 288.105 289.834Z" fill="black"/>
<path d="M286.458 291.411C286.458 291.411 288.166 286.514 289.707 285.642C291.247 284.77 291.071 291.396 291.071 291.396C291.071 291.396 328.58 291.758 330.455 288.698C332.33 285.637 343.241 285.818 343.241 285.818C343.241 285.818 342.902 247.681 342.048 233.293C341.194 218.906 339.834 205.767 336.423 201.81C334.219 199.249 331.081 190.963 329.141 185.44C328.088 182.423 327.387 180.224 327.387 180.224L291.586 182.379L291.294 185.44L287.493 225.556C287.493 225.556 286.982 269.81 285.446 279.883C283.91 289.956 286.458 291.411 286.458 291.411Z" fill="#444053"/>
<g opacity="0.1">
<path opacity="0.1" d="M327.54 288.698C329.397 285.642 340.326 285.818 340.326 285.818C340.326 285.818 339.987 247.681 339.134 233.293C338.28 218.906 336.92 205.767 333.509 201.81C331.295 199.239 328.167 190.963 326.227 185.44C325.34 182.903 324.705 180.949 324.528 180.391L327.313 180.224C327.313 180.224 328.014 182.423 329.072 185.44C331.012 190.963 334.144 199.249 336.349 201.81C339.76 205.767 341.125 218.901 341.974 233.293C342.823 247.685 343.171 285.818 343.171 285.818C343.171 285.818 332.26 285.642 330.381 288.698C328.779 291.308 301.179 291.43 293.169 291.406C303.449 291.381 326.092 291.058 327.54 288.698Z" fill="black"/>
<path opacity="0.1" d="M286.792 285.642C287.484 285.236 287.827 286.362 287.999 287.728C287.379 288.913 286.841 290.144 286.388 291.411C286.388 291.411 285.4 290.848 284.996 287.983C285.562 286.959 286.189 285.995 286.792 285.642Z" fill="black"/>
</g>
<path d="M297.522 87.9502C295.044 91.5153 297.55 96.5837 294.891 100.051C294.013 101.197 292.663 102.01 291.749 103.136C290.055 105.222 290.12 108.057 290.95 110.506C291.781 112.954 293.271 115.187 294.329 117.577C294.793 118.61 295.137 119.771 294.673 120.799C294.348 121.514 293.675 122.058 293.15 122.675C291.442 124.688 291.396 127.484 292.315 129.854C293.234 132.224 294.988 134.261 296.719 136.269C297.401 137.057 298.265 137.929 299.402 137.905C300 137.857 300.578 137.657 301.086 137.322C305.024 135.2 308.034 131.557 309.49 127.152C310.945 122.747 310.735 117.919 308.902 113.674C307.463 110.036 305.064 106.549 305.041 102.705C305.041 99.6541 306.526 96.7404 306.79 93.7042C307.11 90.0119 305.041 84.1502 300.817 82.5391C301.096 84.9092 298.78 86.1188 297.522 87.9502Z" fill="#585268"/>
<path opacity="0.1" d="M297.522 87.9502C295.044 91.5153 297.55 96.5837 294.891 100.051C294.013 101.197 292.663 102.01 291.749 103.136C290.055 105.222 290.12 108.057 290.95 110.506C291.781 112.954 293.271 115.187 294.329 117.577C294.793 118.61 295.137 119.771 294.673 120.799C294.348 121.514 293.675 122.058 293.15 122.675C291.442 124.688 291.396 127.484 292.315 129.854C293.234 132.224 294.988 134.261 296.719 136.269C297.401 137.057 298.265 137.929 299.402 137.905C300 137.857 300.578 137.657 301.086 137.322C305.024 135.2 308.034 131.557 309.49 127.152C310.945 122.747 310.735 117.919 308.902 113.674C307.463 110.036 305.064 106.549 305.041 102.705C305.041 99.6541 306.526 96.7404 306.79 93.7042C307.11 90.0119 305.041 84.1502 300.817 82.5391C301.096 84.9092 298.78 86.1188 297.522 87.9502Z" fill="black"/>
<path opacity="0.1" d="M325.006 217.628C320.045 217.902 315.376 220.155 311.032 222.701C306.688 225.247 302.483 228.132 297.81 229.939" fill="black"/>
<path opacity="0.1" d="M321.925 229.963C317.017 230.457 312.443 232.805 309.046 236.574C307.839 237.921 306.8 239.429 305.542 240.722C303.617 242.704 301.237 244.127 298.636 244.85" fill="black"/>
<path opacity="0.1" d="M322.941 239.351C318.983 240.51 315.401 242.789 312.582 245.942C311.821 246.809 311.13 247.734 310.368 248.601C306.261 253.253 300.46 255.721 294.858 258.057" fill="black"/>
<path d="M322.519 109.164C322.628 113.347 322.969 117.52 323.54 121.661C324.004 124.599 324.654 127.244 325.586 128.414C328.315 131.842 312.29 136.421 312.29 136.421L302.827 128.683C302.827 128.683 310.327 121.397 306.832 114.291C303.337 107.186 322.519 109.164 322.519 109.164Z" fill="#CC818C"/>
<path opacity="0.1" d="M291.285 185.44H329.132C328.079 182.423 327.378 180.224 327.378 180.224L291.577 182.379L291.285 185.44Z" fill="black"/>
<path d="M288.848 184.72H329.313C328.176 180.425 329.313 176.454 330.933 173.398C332.068 171.256 333.496 169.303 335.17 167.6L335.449 167.33L349.576 164.03L350.337 163.854C350.337 163.854 350.453 136.749 341.357 133.027C332.26 129.305 326.807 124.276 326.807 124.276L314.309 128.35L305.101 123.453C302.145 126.808 294.301 125.491 294.301 125.491C281.46 127.048 281.46 137.243 281.46 137.243C281.46 137.243 288.959 155.71 289.53 155.71C290.101 155.71 288.848 184.72 288.848 184.72Z" fill="#6C63FF"/>
<path opacity="0.1" d="M302.818 167.487C302.818 167.487 294.566 165.558 291.758 162.184L302.818 167.487Z" fill="black"/>
<path opacity="0.1" d="M344.424 157.375L334.854 165.651C334.924 166.31 335.029 166.964 335.17 167.61L335.449 167.34L349.576 164.04L344.424 157.375Z" fill="black"/>
<path opacity="0.1" d="M318.513 181.84C318.513 181.84 320.607 183.084 323.814 184.72H329.313C328.176 180.425 329.313 176.454 330.933 173.398L321.238 170.087C324.538 173.324 318.513 181.84 318.513 181.84Z" fill="black"/>
<path d="M287.14 133.992L281.46 137.229L275.89 152.101C275.89 152.101 270.094 168.408 270.66 172.727C270.66 172.727 268.618 182.923 272.252 184.72L281.719 189.245C281.887 189.322 282.073 189.344 282.252 189.305C282.431 189.266 282.595 189.17 282.719 189.029C282.844 188.888 282.925 188.709 282.949 188.518C282.974 188.327 282.941 188.132 282.856 187.962C281.506 185.263 280.021 181.042 282.392 178.721L279.663 172.727L289.526 155.695L292.821 149.819L287.14 133.992Z" fill="#6C63FF"/>
<path opacity="0.1" d="M299.778 164.084C300.27 166.199 301.931 169.47 307.431 170.69L313.464 175.905L319.883 178.976L322.5 180.224L323.609 171.767L321.089 170.298L318.151 168.604C318.151 168.604 311.524 155.935 301.031 161.258C300.543 161.502 300.151 161.917 299.923 162.433C299.694 162.949 299.643 163.532 299.778 164.084Z" fill="black"/>
<path d="M300.121 163.364C300.613 165.484 302.27 168.751 307.769 169.97L313.803 175.185L320.226 178.256L322.839 179.504L323.948 171.047L321.428 169.578L318.513 167.898C318.513 167.898 311.881 155.23 301.388 160.577C300.906 160.817 300.516 161.226 300.285 161.733C300.055 162.241 299.997 162.816 300.121 163.364Z" fill="#CC818C"/>
<path opacity="0.1" d="M311.946 120.133C320.043 120.133 326.607 113.207 326.607 104.664C326.607 96.1201 320.043 89.1941 311.946 89.1941C303.849 89.1941 297.285 96.1201 297.285 104.664C297.285 113.207 303.849 120.133 311.946 120.133Z" fill="black"/>
<path d="M311.946 119.776C320.043 119.776 326.607 112.85 326.607 104.306C326.607 95.7624 320.043 88.8364 311.946 88.8364C303.849 88.8364 297.285 95.7624 297.285 104.306C297.285 112.85 303.849 119.776 311.946 119.776Z" fill="#CC818C"/>
<path opacity="0.1" d="M321.029 137.361L316.62 128.321C316.62 128.321 323.071 125.569 323.54 122.381C324.008 119.193 329.722 126.117 328.487 128.414C327.253 130.711 321.029 137.361 321.029 137.361Z" fill="black"/>
<path d="M321.029 136.641L316.62 127.601C316.62 127.601 323.071 124.849 323.54 121.661C324.008 118.473 329.722 125.402 328.487 127.694C327.253 129.986 321.029 136.641 321.029 136.641Z" fill="#6C63FF"/>
<path d="M284.945 159.995L309.306 194.553C309.306 194.553 300.325 199.71 287.957 190.479L282.615 183.76L267.365 156.635L284.945 159.995Z" fill="#F6F8FB"/>
<path d="M280.151 178.785L282.369 178.721C282.369 178.721 295.921 164.843 299.249 171.865C302.576 178.887 290.807 185.449 290.807 185.449L287.228 187.486L282.564 188.956L279.58 184.729L280.151 178.785Z" fill="#CC818C"/>
<path opacity="0.1" d="M283.423 186.282C283.627 187.08 283.822 187.962 283.478 188.701C283.396 188.899 283.254 189.062 283.075 189.166C282.927 189.226 282.768 189.25 282.611 189.235C281.437 189.129 280.344 188.559 279.552 187.638C278.774 186.721 278.109 185.704 277.57 184.612C276.967 183.5 276.34 182.271 276.554 181.008C276.795 179.632 277.946 178.677 279.074 177.903C281.32 176.336 281.395 178.163 281.887 180.18C282.378 182.198 282.908 184.245 283.423 186.282Z" fill="black"/>
<path d="M283.084 186.282C283.283 187.08 283.483 187.962 283.14 188.701C283.057 188.899 282.915 189.062 282.736 189.166C282.588 189.226 282.429 189.249 282.272 189.235C281.097 189.132 280.004 188.561 279.213 187.638C278.433 186.722 277.765 185.705 277.227 184.612C276.624 183.5 275.997 182.271 276.215 181.008C276.452 179.632 277.607 178.677 278.731 177.903C280.981 176.336 281.051 178.163 281.548 180.18C282.044 182.198 282.564 184.245 283.084 186.282Z" fill="#6C63FF"/>
<path opacity="0.1" d="M289.53 155.695L290.663 153.673L289.674 157.429L289.53 155.695Z" fill="black"/>
<path opacity="0.1" d="M320.245 178.256L322.857 179.504L323.967 171.047L321.447 169.578C323.187 171.684 321.665 175.577 320.245 178.256Z" fill="black"/>
<path opacity="0.1" d="M330.733 168.437C330.733 168.437 322.296 168.981 318.713 166.552L330.733 168.437Z" fill="black"/>
<g opacity="0.1">
<path opacity="0.1" d="M329.684 174.118C330.82 171.975 332.247 170.02 333.922 168.315C334.323 168.049 334.74 167.81 335.17 167.6L348.323 164.75L349.084 164.573C349.084 164.573 349.2 137.469 340.108 133.747C335.008 131.701 330.227 128.86 325.925 125.319L326.923 124.996C326.923 124.996 332.376 130.03 341.473 133.747C350.569 137.464 350.448 164.573 350.448 164.573H349.084L335.625 167.291C335.625 167.291 335.045 167.884 334.868 168.055C333.181 169.839 331.733 171.859 330.566 174.059C328.785 177.548 328.38 181.637 329.438 185.439H328.046C326.923 181.145 328.083 177.173 329.684 174.118Z" fill="black"/>
<path opacity="0.1" d="M293.763 126.274C293.981 126.24 294.19 126.205 294.417 126.181C295.34 126.319 296.27 126.399 297.202 126.421C296.054 126.454 294.905 126.405 293.763 126.274Z" fill="black"/>
<path opacity="0.1" d="M313.056 129.07L304.73 124.624C304.895 124.481 305.05 124.325 305.194 124.158L313.882 128.796L313.056 129.07Z" fill="black"/>
</g>
<path d="M344.754 156.635L350.323 163.834L351.46 183.383C351.46 183.383 352.936 193.334 342.141 190.934C331.346 188.535 318.852 181.12 318.852 181.12C318.852 181.12 324.886 172.605 321.581 169.368L337.04 174.647C337.04 174.647 339.653 174.044 337.607 171.65C335.56 169.255 335.198 164.931 335.198 164.931L344.754 156.635Z" fill="#6C63FF"/>
<path opacity="0.1" d="M347.269 177.286L350.337 181.003C349.548 180.747 348.842 180.264 348.3 179.607C347.758 178.95 347.401 178.146 347.269 177.286Z" fill="black"/>
<path opacity="0.1" d="M342.039 176.684L346.814 183.157L344.429 183.76L342.039 176.684Z" fill="black"/>
<path opacity="0.1" d="M294.436 97.2054C293.911 95.8489 294.315 94.2672 294.946 92.9891C295.578 91.7109 296.445 90.5014 296.919 89.1253C297.62 87.0784 297.406 84.7621 298.172 82.7592C299.522 79.2089 303.361 77.6223 306.8 76.3931C307.816 76.0356 308.897 75.6782 309.937 75.9426C311.329 76.2903 312.234 77.6223 313.371 78.5184C318.04 82.1912 325.633 78.1463 330.149 82.0345C331.875 83.5036 332.715 85.908 332.975 88.2439C333.235 90.5797 332.975 92.9499 332.947 95.3053C332.873 99.4286 333.606 103.939 336.53 106.671C337.412 107.494 338.451 108.111 339.315 108.963C340.178 109.815 340.855 111.005 340.707 112.239C340.593 112.806 340.437 113.362 340.243 113.904C339.663 116.054 340.53 118.311 341.589 120.27C344.745 126.034 350.309 130.784 356.616 130.916C356.194 134.276 352.903 136.225 349.956 137.601C346.244 139.359 342.289 141.082 338.201 140.862C334.112 140.642 329.847 137.88 329.132 133.629C328.886 132.16 328.919 130.392 327.74 129.628C327.016 129.163 326.078 129.281 325.299 128.933C324.171 128.443 323.614 127.106 323.243 125.877C322.482 123.341 322.074 120.702 322.031 118.042C321.98 114.888 322.375 111.446 320.681 108.85C319.112 106.446 316.328 105.227 314.518 103.018C312.847 100.971 311.032 98.5031 308.294 98.1211C304.507 97.558 296.673 102.989 294.436 97.2054Z" fill="black"/>
<path d="M294.436 96.4856C293.911 95.1292 294.315 93.5474 294.946 92.2693C295.578 90.9912 296.445 89.7817 296.919 88.4056C297.62 86.3587 297.406 84.0424 298.172 82.0395C299.522 78.4843 303.361 76.8977 306.8 75.6734C307.816 75.3159 308.897 74.9584 309.937 75.2229C311.329 75.5706 312.234 76.9025 313.371 77.7987C318.04 81.4714 325.633 77.4265 330.149 81.3147C331.875 82.7838 332.715 85.1883 332.975 87.529C333.235 89.8698 332.975 92.2302 332.947 94.5856C332.873 98.7089 333.606 103.219 336.53 105.952C337.412 106.774 338.451 107.391 339.315 108.243C340.178 109.095 340.855 110.285 340.707 111.519C340.593 112.086 340.437 112.643 340.243 113.184C339.663 115.334 340.53 117.592 341.589 119.551C344.754 125.295 350.295 130.059 356.602 130.192C356.18 133.551 352.89 135.5 349.942 136.881C346.23 138.634 342.275 140.358 338.187 140.137C334.098 139.917 329.833 137.155 329.118 132.905C328.872 131.436 328.905 129.668 327.726 128.904C327.002 128.439 326.064 128.556 325.285 128.208C324.157 127.719 323.6 126.382 323.229 125.153C322.468 122.617 322.06 119.977 322.017 117.317C321.966 114.164 322.361 110.721 320.667 108.126C319.098 105.721 316.314 104.502 314.504 102.293C312.833 100.247 311.018 97.7785 308.28 97.3965C304.507 96.8382 296.673 102.279 294.436 96.4856Z" fill="#585268"/>
<path opacity="0.1" d="M304.841 136.239L313.246 129.041C313.246 129.041 307.491 125.75 306.804 122.944C306.117 120.138 301.513 124.276 301.982 126.793C302.451 129.31 304.841 136.239 304.841 136.239Z" fill="black"/>
<path d="M305.171 135.157L313.575 127.963C313.575 127.963 307.821 124.673 307.162 121.867C306.502 119.061 301.871 123.199 302.339 125.716C302.808 128.233 305.171 135.157 305.171 135.157Z" fill="#6C63FF"/>
<path opacity="0.1" d="M313.905 134.692C314.274 134.692 314.573 134.376 314.573 133.987C314.573 133.597 314.274 133.282 313.905 133.282C313.536 133.282 313.237 133.597 313.237 133.987C313.237 134.376 313.536 134.692 313.905 134.692Z" fill="black"/>
<path opacity="0.1" d="M313.905 138.61C314.274 138.61 314.573 138.294 314.573 137.904C314.573 137.515 314.274 137.199 313.905 137.199C313.536 137.199 313.237 137.515 313.237 137.904C313.237 138.294 313.536 138.61 313.905 138.61Z" fill="black"/>
<path opacity="0.1" d="M313.905 142.522C314.274 142.522 314.573 142.207 314.573 141.817C314.573 141.428 314.274 141.112 313.905 141.112C313.536 141.112 313.237 141.428 313.237 141.817C313.237 142.207 313.536 142.522 313.905 142.522Z" fill="black"/>
<g opacity="0.1">
<path opacity="0.1" d="M297.828 86.486C298.492 84.5614 298.348 82.4019 298.97 80.4626C298.682 80.8914 298.444 81.355 298.26 81.8436C297.49 83.8661 297.708 86.1823 297.002 88.2097L296.956 88.3272C297.3 87.7431 297.592 87.1267 297.828 86.486Z" fill="black"/>
<path opacity="0.1" d="M350.852 134.961C347.139 136.715 343.185 138.438 339.096 138.218C335.008 137.998 330.743 135.236 330.028 130.99C329.782 129.521 329.814 127.748 328.636 126.984C327.912 126.519 326.974 126.636 326.194 126.289C325.067 125.799 324.51 124.462 324.138 123.233C323.377 120.697 322.969 118.058 322.927 115.398C322.876 112.249 323.275 108.807 321.581 106.206C320.008 103.802 317.223 102.587 315.413 100.374C313.742 98.3318 311.928 95.8588 309.19 95.4769C305.435 94.9382 297.587 100.374 295.369 94.5856C295.012 93.4919 295.064 92.2961 295.513 91.241C295.35 91.5299 295.192 91.8188 295.048 92.1126C294.417 93.4152 294.018 94.9774 294.543 96.3338C296.775 102.112 304.609 96.6815 308.364 97.2251C311.102 97.6169 312.916 100.09 314.587 102.122C316.397 104.336 319.182 105.55 320.75 107.959C322.449 110.555 322.05 113.997 322.101 117.146C322.143 119.806 322.551 122.445 323.312 124.981C323.684 126.215 324.24 127.538 325.368 128.037C326.148 128.385 327.085 128.272 327.809 128.732C329.007 129.496 328.974 131.284 329.202 132.738C329.926 136.984 334.186 139.746 338.27 139.966C342.354 140.186 346.29 138.468 350.026 136.71C352.718 135.446 355.716 133.698 356.523 130.833C355.233 132.694 352.95 133.977 350.852 134.961Z" fill="black"/>
</g>
<path d="M432.873 162.6C423.048 156.635 419.335 155.166 419.316 155.166L419.112 155.015C418.042 154.147 417.192 153.013 416.639 151.714C416.627 151.477 416.627 151.24 416.639 151.004C416.636 151.027 416.636 151.05 416.639 151.072C416.792 147.914 418.922 145.039 420.941 142.532L426.106 136.122C426.693 135.488 427.147 134.73 427.438 133.899C427.543 133.452 427.589 132.992 427.578 132.532C427.578 132.346 427.578 132.16 427.578 131.974C427.55 130.383 427.508 128.786 427.452 127.195C427.406 125.804 427.067 124.051 425.749 123.767C425.062 123.62 424.152 123.879 423.79 123.277C423.668 123.021 423.636 122.728 423.702 122.45C423.7 122.472 423.7 122.495 423.702 122.518V122.44C423.958 121.365 424.121 120.269 424.19 119.164C424.218 118.601 424.146 118.038 423.976 117.504C423.215 115.197 420.583 114.247 418.258 113.811C415.933 113.375 413.325 113.003 411.868 111.084C411.478 110.443 411.053 109.827 410.596 109.237C409.924 108.607 409.103 108.179 408.22 107.998C405.334 107.248 402.294 107.527 399.574 108.792C398.45 109.321 397.323 110.036 396.088 109.957C394.854 109.879 393.712 108.939 392.45 108.713C390.408 108.346 388.454 109.928 387.447 111.803C386.85 112.916 386.531 114.169 386.518 115.447V115.662C386.489 117.037 386.965 118.371 387.846 119.384C388.727 120.363 390.036 121.01 390.403 122.278C390.551 122.792 390.514 123.351 390.649 123.875C390.663 123.94 390.682 124.003 390.705 124.066L390.64 124.159C388.533 127.003 387.389 130.509 387.391 134.119C387.414 137.625 388.493 141.033 390.471 143.85C392.45 146.667 395.227 148.747 398.399 149.789C398.399 149.951 398.399 150.113 398.399 150.279C398.399 152.238 397.866 154.28 396.265 155.764L382.346 161.63C382.346 161.63 373.955 160.578 370.929 173.515C370.446 175.663 370.271 177.875 370.409 180.077C370.521 182.036 370.266 185.464 368.089 189.906C364.65 197.016 365.434 213.338 372.47 214.954C379.111 216.482 381.71 215.845 381.984 215.772V216.056C381.873 219.121 380.819 245.536 376.99 248.728C375.932 249.615 376.127 250.198 376.99 250.614C376.99 250.614 376.99 250.785 376.967 251.104C376.851 253.062 376.262 260.408 373.718 264.58C370.744 269.428 371.054 297.39 371.054 297.39L369.026 313.873C369.026 313.873 370.275 324.054 369.026 325.832C367.908 327.413 366.423 365.076 366.112 373.245H365.982C365.367 373.287 364.771 373.487 364.247 373.829C363.723 374.17 363.286 374.642 362.974 375.203C361.332 378.019 355.577 383.225 355.577 383.225C354.328 385.095 349.71 386.888 347.269 387.73C346.947 387.841 346.636 387.985 346.341 388.161C345.427 388.686 344.693 389.501 344.243 390.492C344.082 390.785 343.98 391.11 343.941 391.447C343.903 391.784 343.93 392.125 344.021 392.451C344.642 394.062 357.623 395.198 360.909 393.577C363.49 392.309 373.718 390.639 377.965 389.982C378.736 389.88 379.453 389.51 380.003 388.93C380.552 388.35 380.903 387.594 381 386.78C381.041 386.499 381.027 386.212 380.96 385.937C380.893 385.662 380.774 385.404 380.61 385.179C379.798 384.116 379.385 381.212 379.218 379.302C379.563 379.154 379.885 378.953 380.174 378.705C379.819 372.834 380.609 366.949 382.495 361.413C385.623 352.687 386.56 336.527 385.78 326.023C385.78 326.023 395.318 282.714 402.827 278.674C402.943 278.83 406.586 283.762 407.05 299.035C407.514 314.549 412.833 324.73 412.833 324.73C412.833 324.73 410.485 351.071 412.833 360.929L409.765 376.477C409.538 376.276 409.394 376.119 409.394 376.119C409.394 376.119 409.487 376.55 409.612 377.24L409.547 377.573L409.682 377.603C410.03 379.562 410.545 382.936 410.331 384.948C410.211 386.08 409.909 387.632 409.705 389.155C409.38 391.549 409.292 393.871 410.485 394.38C412.443 395.212 423.944 396.339 425.893 393.675C426.331 393.132 426.617 392.47 426.717 391.765C426.817 391.059 426.728 390.338 426.459 389.684C426.319 389.317 426.128 388.974 425.893 388.665C425.893 388.665 422.839 383.401 423.702 379.689C423.782 379.326 423.79 378.95 423.727 378.584C423.664 378.218 423.531 377.869 423.336 377.559C423.47 375.737 424.166 367.304 425.967 360.145C427.926 352.369 432.051 335.317 429.016 324.108C428.902 323.667 428.772 323.236 428.626 322.815C426.875 316.695 426.289 310.268 426.905 303.908C425.778 298.478 425.778 292.855 426.905 287.425C428.784 278.375 430.098 269.487 430.098 269.487C430.098 269.487 431.133 257.528 430.228 250.198C430.228 250.041 430.186 249.884 430.167 249.708L430.659 249.59C430.659 249.59 428 237.147 427.062 229.229C426.84 227.358 426.552 224.993 426.236 222.466C427.101 222.315 427.953 222.09 428.784 221.795C437.226 218.725 439.885 190.944 439.885 190.944V182.129C439.885 182.129 442.726 168.579 432.873 162.6ZM369.959 377.206C369.699 377.069 369.546 376.976 369.546 376.976L369.959 377.206Z" fill="url(#paint2_linear)"/>
<path d="M427.777 322.992C431.439 334.103 427.164 352.138 425.178 360.209C423.192 368.279 422.584 377.926 422.584 377.926C414.801 379.214 409.153 377.603 409.153 377.603L412.36 361.017C410.067 351.193 412.36 324.941 412.36 324.941C412.36 324.941 407.171 314.794 406.711 299.334C406.247 284.119 402.706 279.198 402.595 279.046C395.271 283.071 385.961 326.233 385.961 326.233C386.723 336.698 385.804 352.804 382.754 361.492C380.902 367.014 380.124 372.873 380.466 378.719C379.399 379.699 377.914 379.836 376.29 379.562C371.932 378.817 366.706 374.856 366.706 374.856C366.706 374.856 368.381 327.844 369.606 326.062C370.832 324.279 369.606 314.143 369.606 314.143L371.588 297.718C371.588 297.718 371.282 269.854 374.183 265.026C376.689 260.854 377.264 253.518 377.376 251.593C377.376 251.29 377.376 251.104 377.376 251.104L381.794 245.521C381.794 245.521 424.528 242.137 427.74 245.521C428.524 246.349 429.012 248.239 429.299 250.614C430.181 257.92 429.169 269.835 429.169 269.835C429.169 269.835 427.888 278.693 426.055 287.709C424.956 293.124 424.956 298.723 426.055 304.138C425.466 310.481 426.051 316.884 427.777 322.992Z" fill="#65617D"/>
<path d="M425.104 393.606C423.196 396.265 411.979 395.139 410.067 394.311C408.902 393.822 408.99 391.486 409.306 389.101C409.505 387.588 409.798 386.04 409.918 384.914C410.22 382.015 408.99 376.134 408.99 376.134C408.99 376.134 411.506 378.954 412.114 376.134C412.383 374.9 413.32 374.268 414.295 373.95C415.603 373.532 417.009 373.624 418.258 374.209C420.24 375.12 423.544 377.054 422.955 379.669C422.115 383.367 425.09 388.616 425.09 388.616C425.32 388.923 425.508 389.262 425.647 389.625C425.912 390.277 426.001 390.994 425.905 391.696C425.809 392.398 425.532 393.059 425.104 393.606Z" fill="#A27772"/>
<path opacity="0.1" d="M425.104 393.606C423.196 396.265 411.979 395.139 410.067 394.311C408.902 393.822 408.99 391.486 409.306 389.101C410.512 389.699 412.555 390.193 415.975 389.86C416.772 389.78 417.574 389.754 418.374 389.782C420.804 389.897 423.238 389.845 425.661 389.625C425.924 390.279 426.011 390.996 425.912 391.698C425.814 392.401 425.534 393.061 425.104 393.606Z" fill="black"/>
<path opacity="0.1" d="M385.957 326.214C386.718 336.678 385.799 352.785 382.75 361.472C380.898 366.994 380.12 372.853 380.462 378.7C379.394 379.679 377.909 379.816 376.285 379.542C377.213 372.75 381.13 343.485 383.641 320.362C386.504 294.031 399.885 275.917 399.885 275.917L402.553 279.016C395.267 283.051 385.957 326.214 385.957 326.214Z" fill="black"/>
<path d="M420.523 156.954L418.667 166.615L409.538 182.8L398.283 177.727C398.283 177.727 382.968 160.817 392.598 158.403C393.749 158.142 394.836 157.632 395.791 156.905C397.68 155.401 398.274 153.217 398.283 151.077C398.212 148.683 397.685 146.328 396.733 144.153L416.42 137.63C415.617 140.36 415.149 143.187 415.028 146.043C414.875 151.704 416.885 154.49 418.504 155.837C419.102 156.344 419.788 156.723 420.523 156.954Z" fill="#FBBEBE"/>
<path opacity="0.1" d="M416.402 137.63C415.598 140.36 415.13 143.187 415.01 146.043C414.651 146.495 414.268 146.925 413.863 147.331C411.831 149.379 409.31 150.809 406.57 151.469C403.829 152.128 400.971 151.993 398.297 151.077C398.221 148.682 397.69 146.327 396.733 144.153L416.402 137.63Z" fill="black"/>
<path d="M418.662 134.971C418.663 138.221 417.751 141.398 416.04 144.1C414.33 146.803 411.898 148.909 409.053 150.153C406.208 151.398 403.077 151.724 400.057 151.09C397.036 150.457 394.261 148.893 392.083 146.595C389.905 144.298 388.422 141.37 387.82 138.183C387.219 134.996 387.527 131.692 388.706 128.69C389.884 125.688 391.88 123.121 394.44 121.316C397.001 119.51 400.012 118.547 403.091 118.547C405.139 118.536 407.167 118.954 409.061 119.776C410.954 120.597 412.674 121.807 414.122 123.334C415.57 124.861 416.716 126.676 417.496 128.673C418.275 130.671 418.671 132.811 418.662 134.971Z" fill="#FBBEBE"/>
<path opacity="0.1" d="M420.523 156.954L418.667 166.616L409.538 182.8L398.283 177.727C398.283 177.727 382.968 160.817 392.598 158.403C393.749 158.142 394.836 157.632 395.791 156.905C394.055 161.939 401.221 172.414 401.221 172.414C402.056 173.711 403.969 172.903 403.969 172.903C408.586 172.164 417.084 158.153 418.472 155.823C419.078 156.338 419.775 156.723 420.523 156.954Z" fill="black"/>
<path opacity="0.1" d="M429.336 250.623C426.626 251.275 411.631 254.776 405.946 253.9C399.69 252.92 387.525 252.293 387.525 252.293C387.525 252.293 379.78 252.734 377.394 251.583C377.394 251.28 377.394 251.094 377.394 251.094L381.812 245.511C381.812 245.511 424.547 242.127 427.758 245.511C428.561 246.358 429.049 248.248 429.336 250.623Z" fill="black"/>
<path d="M401.216 172.898C401.216 172.898 393.164 161.146 396.2 156.542L382.597 162.419C382.597 162.419 374.41 161.371 371.458 174.265C370.987 176.407 370.816 178.612 370.952 180.807C371.064 182.766 370.813 186.194 368.711 190.601C365.355 197.687 366.116 213.955 372.985 215.576C379.854 217.197 382.29 216.379 382.29 216.379C382.29 216.379 381.362 245.849 377.408 249.233C373.454 252.617 387.525 251.809 387.525 251.809C387.525 251.809 399.69 252.455 405.95 253.42C412.211 254.385 429.759 250.036 429.759 250.036C429.759 250.036 427.164 237.637 426.246 229.748C425.327 221.859 423.187 205.052 423.187 205.052L438.753 182.8C438.753 182.8 441.501 169.353 431.884 163.393C422.268 157.434 418.653 155.974 418.653 155.974C418.653 155.974 408.99 172.575 403.955 173.378C403.964 173.378 402.052 174.191 401.216 172.898Z" fill="#66FF63"/>
<path opacity="0.1" d="M383.358 177.565C383.358 177.565 383.209 182.883 384.124 184.974C385.038 187.065 388.398 198.686 388.398 198.686H380.764C380.764 198.686 384.885 194.014 384.583 191.757C384.281 189.499 383.358 177.565 383.358 177.565Z" fill="black"/>
<path d="M405.95 217.667C405.95 217.667 389.094 213.318 387.525 209.616C385.957 205.914 381.627 197.623 381.627 197.623L383.404 195.096L391.6 201.884C391.6 201.884 401.346 210.096 405.95 210.904C410.554 211.712 405.95 217.667 405.95 217.667Z" fill="#FBBEBE"/>
<path opacity="0.05" d="M405.95 217.667C405.95 217.667 389.094 213.318 387.525 209.616C385.957 205.914 381.627 197.623 381.627 197.623L383.404 195.096L391.6 201.884C391.6 201.884 401.346 210.096 405.95 210.904C410.554 211.712 405.95 217.667 405.95 217.667Z" fill="black"/>
<path d="M420.523 196.732V206.379H419.057C411.794 206.378 404.651 208.329 398.302 212.05L395.545 213.661L394.807 214.097L390.073 202.834L394.501 198.647H394.728C395.81 198.759 400.493 199.171 402.479 198.466C404.363 197.79 406.702 195.65 412.253 197.143C414.986 197.883 417.326 201.115 419.976 200.106L420.523 196.732Z" fill="#FBBEBE"/>
<path opacity="0.1" d="M435.254 179.162L438.303 182.785V191.566C438.303 191.566 435.709 219.263 427.471 222.324C419.233 225.384 404.516 220.551 404.516 220.551C404.516 220.551 400.715 209.925 402.493 209.288C404.27 208.651 418.203 204.763 418.203 204.763C418.203 204.763 418.008 188.515 421.057 183.681C421.057 183.681 419.075 168.545 425.944 168.222C432.813 167.898 435.254 179.162 435.254 179.162Z" fill="black"/>
<path d="M435.718 179.162L438.772 182.785V191.566C438.772 191.566 436.177 219.263 427.935 222.324C419.692 225.384 404.98 220.551 404.98 220.551C404.98 220.551 401.179 209.925 402.961 209.288C404.744 208.651 418.671 204.763 418.671 204.763C418.671 204.763 418.472 188.515 421.526 183.681C421.526 183.681 419.539 168.545 426.408 168.222C433.277 167.898 435.718 179.162 435.718 179.162Z" fill="#63FFB4"/>
<path opacity="0.1" d="M414.392 141.944C414.524 140.884 414.404 139.805 414.044 138.805C413.613 137.826 412.606 137.087 411.622 137.336C410.318 137.66 409.765 139.452 408.475 139.883C407.394 140.245 406.215 139.437 405.69 138.375C405.166 137.312 405.161 136.063 405.161 134.868C405.161 133.527 405.161 132.18 405.161 130.833C405.161 129.364 405.115 127.787 404.261 126.636C403.198 125.207 400.697 124.58 399.026 124.638C397.914 124.652 396.848 125.104 396.037 125.907C395.146 126.71 394.111 127.298 392.895 127.087C392.388 127.007 391.913 126.777 391.525 126.423C391.137 126.069 390.853 125.607 390.705 125.089V125.04C392 123.223 393.638 121.71 395.515 120.596C397.393 119.482 399.47 118.792 401.613 118.568C403.757 118.344 405.922 118.593 407.97 119.297C410.018 120.002 411.905 121.147 413.512 122.661C415.119 124.175 416.41 126.025 417.305 128.093C418.2 130.16 418.678 132.402 418.709 134.674C418.74 136.947 418.324 139.202 417.487 141.296C416.649 143.391 415.409 145.279 413.845 146.841C414.113 145.221 414.296 143.586 414.392 141.944Z" fill="black"/>
<path d="M392.895 126.612C392.388 126.53 391.913 126.298 391.524 125.944C391.136 125.59 390.85 125.127 390.7 124.609C390.575 124.09 390.607 123.536 390.463 123.022C390.106 121.754 388.825 121.098 387.966 120.133C386.249 118.209 386.361 115.045 387.577 112.729C388.56 110.863 390.463 109.301 392.459 109.653C393.693 109.879 394.779 110.804 396.014 110.892C397.248 110.981 398.334 110.261 399.416 109.732C402.067 108.462 405.05 108.182 407.872 108.939C408.737 109.122 409.539 109.55 410.192 110.177C410.636 110.766 411.049 111.379 411.431 112.014C412.852 113.924 415.399 114.301 417.669 114.732C419.938 115.163 422.505 116.113 423.238 118.414C423.735 119.942 423.238 121.597 422.969 123.184C422.88 123.508 422.901 123.854 423.029 124.163C423.387 124.78 424.273 124.521 424.941 124.653C426.227 124.942 426.557 126.69 426.608 128.081C426.66 129.668 426.7 131.256 426.728 132.846C426.765 133.437 426.72 134.031 426.594 134.609C426.315 135.436 425.874 136.192 425.299 136.827L420.259 143.218C418.022 146.048 415.65 149.349 416.082 153.012C415.024 153.501 413.761 152.546 413.418 151.376C413.074 150.206 413.348 148.927 413.585 147.747C413.996 145.673 414.266 143.57 414.392 141.455C414.524 140.396 414.404 139.319 414.044 138.321C413.613 137.341 412.606 136.602 411.622 136.851C410.313 137.175 409.765 138.967 408.475 139.398C407.394 139.76 406.215 138.952 405.69 137.89C405.166 136.827 405.161 135.583 405.161 134.388V130.348C405.161 128.879 405.115 127.302 404.261 126.151C403.198 124.722 400.697 124.095 399.026 124.154C397.916 124.168 396.851 124.62 396.042 125.422C395.146 126.23 394.111 126.822 392.895 126.612Z" fill="#7C5C5C"/>
<path opacity="0.1" d="M396.408 177.164L401.189 197.883C401.189 197.883 404.957 197.858 396.408 177.164Z" fill="black"/>
<path opacity="0.1" d="M412.74 173.701C412.74 173.701 406.484 184.514 408.925 195.699L410.09 195.787C410.09 195.787 408.011 190.611 412.74 173.701Z" fill="black"/>
<path opacity="0.1" d="M416.69 234.899C416.69 234.899 424.375 232.216 424.932 238.44C424.951 238.44 423.503 234.175 416.69 234.899Z" fill="black"/>
<path opacity="0.1" d="M394.501 199.146C394.501 199.146 392.974 210.409 395.721 214.929C395.721 214.929 390.152 217.344 382.29 216.864L381.362 199.146H394.501Z" fill="black"/>
<path opacity="0.1" d="M395.545 213.661L394.807 214.097L390.073 202.834L394.501 198.647H394.728C394.659 199.205 393.424 208.886 395.545 213.661Z" fill="black"/>
<path d="M394.501 198.667C394.501 198.667 392.974 209.93 395.721 214.445C395.721 214.445 390.152 216.864 382.29 216.379L376.949 198.667H394.501Z" fill="#63FF73"/>
<path d="M381.302 386.75C381.213 387.554 380.874 388.304 380.337 388.882C379.8 389.46 379.096 389.834 378.336 389.943C374.192 390.595 364.209 392.26 361.689 393.528C358.482 395.139 345.817 394.018 345.204 392.402C345.116 392.076 345.089 391.735 345.127 391.399C345.164 391.063 345.265 390.738 345.422 390.443C345.857 389.462 346.573 388.65 347.469 388.122C347.765 387.948 348.076 387.803 348.397 387.691C350.782 386.853 355.289 385.071 356.505 383.2C356.505 383.2 362.125 378.014 363.726 375.213C364.027 374.662 364.452 374.197 364.964 373.861C365.475 373.524 366.058 373.326 366.659 373.284C367.996 373.22 369.486 373.93 370.098 377.02C370.098 377.02 377.417 381.427 379.38 377.564C379.38 377.564 379.687 383.499 380.903 385.125C381.069 385.354 381.19 385.615 381.259 385.895C381.327 386.174 381.342 386.465 381.302 386.75Z" fill="#A27772"/>
<path opacity="0.1" d="M381.302 386.75C381.213 387.554 380.874 388.304 380.337 388.882C379.8 389.46 379.096 389.833 378.336 389.943C374.192 390.594 364.209 392.259 361.689 393.528C358.482 395.139 345.817 394.017 345.204 392.401C345.116 392.076 345.089 391.735 345.127 391.399C345.164 391.063 345.265 390.738 345.422 390.443C345.857 389.462 346.573 388.649 347.469 388.121C349.534 389.591 354.119 390.981 364.204 389.321C373.825 387.735 378.592 386.182 380.912 385.125C381.077 385.354 381.196 385.616 381.263 385.896C381.33 386.175 381.343 386.466 381.302 386.75Z" fill="black"/>
<g opacity="0.1">
<path opacity="0.1" d="M422.946 123.409V123.331C423.164 122.126 423.493 120.882 423.41 119.673C423.313 120.661 423.158 121.643 422.946 122.611C422.889 122.874 422.889 123.147 422.946 123.409Z" fill="black"/>
<path opacity="0.1" d="M414.04 138.482C414.282 139.063 414.41 139.689 414.416 140.323C414.484 139.449 414.355 138.569 414.04 137.757C413.613 136.778 412.606 136.039 411.622 136.288C410.313 136.612 409.765 138.404 408.47 138.835C407.394 139.197 406.215 138.389 405.686 137.327C405.157 136.264 405.157 135.015 405.157 133.82C405.157 132.474 405.157 131.132 405.157 129.785C405.157 128.316 405.11 126.739 404.256 125.588C403.189 124.154 400.692 123.532 399.021 123.586C397.909 123.601 396.843 124.055 396.032 124.859C395.137 125.662 394.106 126.25 392.886 126.039C392.379 125.957 391.905 125.727 391.518 125.373C391.13 125.02 390.845 124.558 390.695 124.041C390.57 123.522 390.602 122.964 390.459 122.449C390.101 121.186 388.82 120.525 387.962 119.565C387.156 118.623 386.7 117.406 386.676 116.137C386.613 116.881 386.694 117.631 386.915 118.341C387.136 119.051 387.492 119.706 387.962 120.265C388.82 121.245 390.101 121.886 390.459 123.15C390.602 123.639 390.57 124.222 390.695 124.741C390.845 125.258 391.13 125.72 391.518 126.073C391.905 126.427 392.379 126.658 392.886 126.739C394.106 126.95 395.137 126.362 396.032 125.559C396.843 124.755 397.909 124.301 399.021 124.286C400.692 124.232 403.198 124.854 404.256 126.289C405.11 127.439 405.152 129.021 405.157 130.485C405.157 131.832 405.157 133.174 405.157 134.521C405.157 135.715 405.157 136.969 405.686 138.022C406.215 139.075 407.38 139.897 408.47 139.535C409.751 139.104 410.327 137.312 411.622 136.989C412.606 136.763 413.613 137.537 414.04 138.482Z" fill="black"/>
<path opacity="0.1" d="M426.584 134.05C426.305 134.877 425.862 135.632 425.285 136.264L420.245 142.654C418.124 145.343 415.882 148.457 416.068 151.89C416.221 148.741 418.3 145.877 420.245 143.379L425.285 136.989C425.862 136.356 426.305 135.602 426.584 134.775C426.71 134.196 426.756 133.6 426.719 133.007C426.712 133.359 426.666 133.709 426.584 134.05Z" fill="black"/>
<path opacity="0.1" d="M413.441 150.813C413.358 150.533 413.307 150.244 413.288 149.951C413.246 150.485 413.298 151.023 413.441 151.538C413.784 152.703 415.042 153.668 416.105 153.168C416.075 152.934 416.056 152.699 416.049 152.463C414.991 152.909 413.766 151.959 413.441 150.813Z" fill="black"/>
</g>
<path opacity="0.1" d="M362.71 376.687C362.71 376.687 364.306 379.625 370.089 377.04L362.71 376.687Z" fill="black"/>
<path opacity="0.1" d="M411.585 377.402C411.585 377.402 416.569 383.597 422.853 379.434L411.585 377.402Z" fill="black"/>
<path opacity="0.1" d="M426.092 304.148C426.092 304.148 422.57 306.469 422.458 307.796C422.347 309.123 424.278 306.817 424.278 306.817L426.092 304.148Z" fill="black"/>
<path opacity="0.1" d="M427.485 321.953C426.26 323.029 424.737 323.656 423.145 323.741C420.509 323.863 420.732 327.487 422.454 326.4C424.176 325.313 427.485 321.953 427.485 321.953Z" fill="black"/>
<path opacity="0.1" d="M428.153 324.279C428.153 324.279 426.464 333.04 425.09 331.351L428.153 324.279Z" fill="black"/>
<path d="M101.787 389.938C101.787 389.938 112.392 393.009 117.497 388.925C122.602 384.84 124.816 386.153 124.816 386.153C124.816 386.153 136.989 385.443 137.992 382.407C138.994 379.371 133.323 368.342 133.323 368.342C132.919 367.363 132.329 366.119 132.065 366.119L132.121 361.467L133.884 342.002C137.954 330.988 133.958 316.757 133.958 316.757L133.23 313.227C132.82 311.242 133.064 309.169 133.921 307.35L141.315 291.68C141.71 290.644 142.175 289.639 142.707 288.673C143.171 287.777 143.788 286.67 144.563 285.343C144.791 284.961 145.027 284.565 145.287 284.148C146.183 282.679 147.269 281.014 148.582 279.095C151.854 274.31 153.576 268.321 154.467 263.914L154.862 265.295H154.885H154.95L155.057 265.319H155.205H155.233L155.423 265.354H155.493L157.767 295.891C157.906 307.801 162.051 314.392 162.051 314.392L161.48 340.684C162.259 347.016 160.552 355.458 159.767 358.828L157.976 363.093C157.27 363.465 156.661 364.012 156.201 364.688C155.741 365.364 155.444 366.147 155.335 366.971C154.982 370.12 151.84 376.907 151.84 376.907C150.624 378.533 147.984 382.926 147.984 382.926C147.984 382.926 146.74 387.167 147.51 388.753C148.281 390.34 154.722 390.178 154.722 390.178C162.078 391.897 167.717 387.73 167.36 384.86C167.003 381.99 168.506 381.261 168.506 381.261C171.43 380.281 171.147 378.19 171.147 378.19C171.776 373.877 170.996 369.466 168.933 365.683L168.469 366.815C168.344 364.55 168.643 362.282 169.351 360.14L169.082 360.336L168.998 360.39H168.97C169.434 356.095 173.709 348.147 173.709 348.147C181.561 333.613 178.707 313.917 178.707 313.917L177.491 307.776L177.422 305.46C177.255 299.93 177.652 294.398 178.605 288.957C179.027 286.548 179.464 283.639 179.798 280.432C180.503 273.654 182.777 266.661 183.826 263.699L184.137 263.64H184.174C184.601 263.561 185.033 263.483 185.469 263.395H185.553C185.553 263.395 185.803 261.965 186.017 259.531C186.142 257.979 186.244 256.01 186.244 253.748C186.276 246.917 185.287 240.123 183.316 233.616L183.552 233.259C183.552 233.259 184.114 232.456 185.14 231.065C187.024 228.538 189.957 224.699 193.572 220.37C200.047 212.579 198.144 204.699 198.144 204.699C198.144 204.699 193.456 186.576 191.368 175.695C190.175 169.495 187.938 165.279 186.226 162.791C186.612 161.076 186.83 159.323 186.875 157.561C187.015 154.339 186.908 150.979 185.534 148.085C184.16 145.191 181.237 142.904 178.183 143.291C177.75 143.401 177.298 143.401 176.865 143.291C176.508 143.12 176.206 142.843 175.997 142.493C174.21 139.893 174.094 136.396 174.651 133.242C175.208 130.089 176.35 127.072 176.86 123.909C177.371 120.745 177.139 117.234 175.231 114.727C172.99 111.789 169.082 110.961 166.167 108.753C164.121 107.2 162.584 104.972 160.426 103.596C158.268 102.22 156.249 102.744 153.906 103.263C149.965 104.14 146.22 104.541 142.493 106.329C138.72 108.132 135.335 110.73 132.548 113.963C131.558 115.005 130.8 116.266 130.329 117.655C129.401 120.892 131.216 124.34 130.835 127.689C130.566 130.064 129.239 132.131 128.185 134.251C127.132 136.372 126.329 138.889 127.155 141.107C128.454 144.574 132.691 145.309 135.773 147.155C136.185 147.367 136.537 147.69 136.794 148.09C137.555 149.491 136.001 150.945 135.021 152.189C134.461 152.915 134.064 153.765 133.861 154.677C132.585 155.229 131.458 156.104 130.578 157.224C129.699 158.345 129.093 159.676 128.816 161.101C127.772 166.033 129.378 172.257 130.793 176.37C129.248 185.533 131.257 189.147 132.738 190.532C134.237 191.887 135.165 193.814 135.318 195.89V196.061C135.416 197.726 135.583 199.386 135.806 201.041C135.755 200.655 135.704 200.243 135.676 200.062C134.464 202.427 132.158 208.47 130.858 218.636C130.588 220.815 130.196 222.975 129.684 225.105C128.755 228.877 128.422 232.786 128.7 236.672L128.932 239.968C128.704 239.974 128.481 239.896 128.301 239.747L129.93 242.896V248.209C129.928 250.605 129.51 252.98 128.696 255.217C128.58 255.54 128.454 255.863 128.32 256.196C127.901 257.091 127.712 258.085 127.772 259.081C124.268 264.746 116.234 296.499 116.234 296.499C111.876 306.91 116.592 313.638 116.592 313.638C116.592 313.638 118.875 342.623 119.302 344.122C119.729 345.62 120.676 363.289 120.676 363.289C120.676 363.754 120.676 364.239 120.676 364.694C120.423 364.578 120.156 364.497 119.882 364.454C116.063 364.229 115.028 370.595 115.028 370.595L107.212 378.469C107.212 378.469 103.643 377.833 98.3943 381.99C93.1453 386.148 101.787 389.938 101.787 389.938ZM179.826 222.417L179.803 222.329L179.589 222.461L179.501 222.515L179.459 222.544L175.858 209.131C174.894 205.535 174.803 201.741 175.593 198.098L178.378 185.229V182.134L187.228 207.021C187.794 210.375 182.536 218.499 179.826 222.417Z" fill="url(#paint3_linear)"/>
<path d="M183.71 262.9C183.71 262.9 180.137 272.072 179.227 280.872C178.897 284.046 178.471 286.915 178.053 289.295C177.126 294.668 176.743 300.129 176.911 305.588L176.981 307.874L178.141 313.932C178.141 313.932 180.926 333.388 173.235 347.721C173.235 347.721 168.678 356.306 168.539 360.37L165.452 361.629L159.215 359.783C159.215 359.783 162.227 348.387 161.248 340.4L161.809 314.446C161.809 314.446 157.758 307.953 157.618 296.2L155.238 263.948L183.71 262.9Z" fill="#FDC2CC"/>
<path d="M155.238 258.307C155.238 258.307 154.472 270.882 148.578 279.55C142.684 288.218 141.431 291.979 141.431 291.979L134.172 307.463C133.332 309.257 133.091 311.299 133.49 313.256L134.204 316.743C134.204 316.743 138.131 330.797 134.135 341.673L132.241 362.682H121.168C121.168 362.682 120.24 345.224 119.836 343.745C119.432 342.266 117.172 313.638 117.172 313.638C117.172 313.638 112.531 306.978 116.819 296.699C116.819 296.699 126.496 258.233 129.085 258.899C131.675 259.565 155.238 258.307 155.238 258.307Z" fill="#FDC2CC"/>
<g opacity="0.1">
<path opacity="0.1" d="M133.081 316.767L132.371 313.281C131.962 311.317 132.201 309.264 133.049 307.463L140.307 291.964C140.307 291.964 141.565 288.193 147.455 279.535C153.112 271.21 154.045 259.281 154.11 258.366L155.238 258.307C155.238 258.307 154.472 270.882 148.578 279.55C142.684 288.218 141.431 291.979 141.431 291.979L134.172 307.463C133.332 309.257 133.091 311.299 133.49 313.256L134.204 316.743C134.204 316.743 138.131 330.797 134.135 341.673L132.241 362.682H131.118L133.012 341.673C137.008 330.797 133.081 316.767 133.081 316.767Z" fill="black"/>
</g>
<path opacity="0.1" d="M167.434 360.385C167.573 356.32 172.131 347.736 172.131 347.736C179.844 333.388 177.036 313.947 177.036 313.947L175.848 307.884L175.779 305.597C175.61 300.139 175.993 294.678 176.92 289.305C177.333 286.925 177.76 284.055 178.09 280.882C178.967 272.41 182.313 263.596 182.559 262.949L183.71 262.9C183.71 262.9 180.137 272.072 179.227 280.872C178.897 284.046 178.471 286.915 178.053 289.295C177.126 294.668 176.743 300.129 176.911 305.588L176.981 307.874L178.141 313.932C178.141 313.932 180.926 333.388 173.235 347.721C173.235 347.721 168.678 356.306 168.539 360.37L165.452 361.629L164.803 361.438L167.434 360.385Z" fill="black"/>
<path d="M163.861 360.238C164.696 360.587 165.602 360.709 166.494 360.593C167.386 360.476 168.236 360.125 168.966 359.572C167.944 362.718 167.799 366.107 168.548 369.337C169.81 374.665 156.769 365.047 156.769 365.047L159.554 358.333C159.554 358.333 160.635 360.458 163.861 360.238Z" fill="#D39999"/>
<path opacity="0.1" d="M164.831 360.537C165.548 360.69 166.288 360.681 167.002 360.513C167.716 360.344 168.388 360.018 168.975 359.557C167.954 362.703 167.809 366.092 168.557 369.322C169.82 374.65 156.778 365.032 156.778 365.032L159.563 358.318C159.563 358.318 160.371 359.954 162.742 360.209C163.461 360.297 164.148 360.4 164.831 360.537Z" fill="black"/>
<path d="M134.274 235.791H139.723V203.172L135.634 202.398L134.274 235.791Z" fill="#FDC2CC"/>
<path opacity="0.05" d="M134.274 235.791H139.723V203.172L135.634 202.398L134.274 235.791Z" fill="black"/>
<path d="M160.774 362.755C160.774 362.755 164.209 362.53 165.75 365.786L167.643 367.339L168.571 365.047C170.586 368.792 171.341 373.146 170.715 377.402C170.715 377.402 170.994 379.468 168.121 380.433C168.121 380.433 166.65 381.173 166.998 383.983C167.346 386.794 161.814 390.937 154.593 389.233C154.593 389.233 148.281 389.385 147.51 387.828C146.74 386.27 148.002 382.132 148.002 382.132C148.002 382.132 150.597 377.794 151.785 376.192C151.785 376.192 154.871 369.483 155.224 366.398C155.576 363.313 158.95 361.051 160.774 362.755Z" fill="#7E5659"/>
<path d="M132.348 365.493L132.404 360.894C132.404 360.894 126.134 362.799 121.056 360.645C121.056 360.645 121.483 365.267 120.778 365.899C120.073 366.531 123.126 372.481 123.126 372.481L126.538 376.251L132.404 373.999L133.996 368.71C133.996 368.71 132.766 365.493 132.348 365.493Z" fill="#D39999"/>
<path opacity="0.1" d="M132.348 365.493L132.404 360.894C132.404 360.894 126.134 362.799 121.056 360.645C121.056 360.645 121.483 365.267 120.778 365.899C120.073 366.531 123.126 372.481 123.126 372.481L126.538 376.251L132.404 373.999L133.996 368.71C133.996 368.71 132.766 365.493 132.348 365.493Z" fill="black"/>
<path d="M120.393 363.827C120.393 363.827 123.725 364.234 123.303 368.724C122.88 373.215 123.479 368.724 123.479 368.724C123.479 368.724 127.02 370.238 128.283 372.348C129.545 374.459 131.824 370.463 131.995 369.317C132.167 368.171 133.587 367.696 133.587 367.696C133.587 367.696 139.156 378.592 138.173 381.589C137.189 384.586 125.233 385.276 125.233 385.276C125.233 385.276 123.057 383.984 118.044 388.014C113.032 392.044 102.622 388.993 102.622 388.993C102.622 388.993 94.1385 385.257 99.2947 381.158C104.451 377.059 107.95 377.681 107.95 377.681L115.626 369.875C115.626 369.875 116.643 363.602 120.393 363.827Z" fill="#7E5659"/>
<path d="M160.19 106.24C162.311 107.597 163.819 109.8 165.828 111.333C168.687 113.512 172.525 114.325 174.725 117.234C176.582 119.712 176.823 123.174 176.322 126.298C175.821 129.423 174.697 132.405 174.154 135.52C173.611 138.634 173.723 142.086 175.477 144.652C175.681 144.997 175.976 145.272 176.326 145.441C176.752 145.548 177.196 145.548 177.621 145.441C180.619 145.059 183.497 147.321 184.843 150.176C186.189 153.031 186.295 156.351 186.156 159.534C186.04 162.145 185.762 164.808 184.676 167.159C182.819 171.155 178.958 173.623 175.148 175.513C172.671 176.742 170.132 177.824 167.541 178.755C165.759 179.392 163.879 179.965 162.027 179.632C158.858 179.054 156.611 176.013 153.604 174.823C151.14 173.843 148.406 174.196 145.784 174.441C143.547 174.647 140.99 174.642 139.449 172.918C137.472 170.704 138.363 167.135 139.375 164.284C138.303 164.213 137.271 163.83 136.393 163.178C135.514 162.527 134.824 161.632 134.397 160.592C133.971 159.552 133.825 158.408 133.976 157.287C134.127 156.165 134.569 155.109 135.253 154.236C136.209 153.007 137.736 151.572 136.989 150.186C136.738 149.791 136.392 149.473 135.987 149.265C132.965 147.444 128.802 146.714 127.531 143.296C126.714 141.097 127.503 138.61 128.538 136.519C129.573 134.427 130.858 132.381 131.141 130.04C131.513 126.729 129.749 123.326 130.645 120.133C131.108 118.762 131.851 117.515 132.821 116.48C135.55 113.293 138.866 110.729 142.568 108.943C146.229 107.176 149.9 106.779 153.771 105.917C156.092 105.398 158.013 104.85 160.19 106.24Z" fill="#865A61"/>
<path d="M139.718 155.539C139.718 155.539 130.84 155.049 129.16 163.036C127.48 171.023 132.803 182.462 132.803 182.462L139.718 155.539Z" fill="#FDC2CC"/>
<path opacity="0.05" d="M139.718 155.539C139.718 155.539 130.84 155.049 129.16 163.036C127.48 171.023 132.803 182.462 132.803 182.462L139.718 155.539Z" fill="black"/>
<path d="M134.051 179.308L137.416 182.119L153.117 182.859L162.918 175.758L172.887 157.708C166.794 156.067 164.329 151.626 163.41 147.473C162.826 144.663 162.76 141.76 163.216 138.923C163.216 138.923 147.232 130.192 149.195 143.82C149.464 145.493 149.514 147.196 149.344 148.883C148.415 156.866 141.073 155.362 141.073 155.362L138.256 159.946L135.031 171.209L134.051 179.308Z" fill="#FDC2CC"/>
<path opacity="0.1" d="M149.209 143.8C149.478 145.473 149.528 147.177 149.357 148.864C151.613 149.951 154.098 150.395 156.567 150.15C159.035 149.906 161.4 148.983 163.424 147.473C162.84 144.663 162.774 141.76 163.229 138.923C163.229 138.923 147.246 130.192 149.209 143.8Z" fill="black"/>
<path d="M155.247 149.623C163.067 149.623 169.407 142.934 169.407 134.682C169.407 126.431 163.067 119.741 155.247 119.741C147.427 119.741 141.087 126.431 141.087 134.682C141.087 142.934 147.427 149.623 155.247 149.623Z" fill="#FDC2CC"/>
<path d="M145.232 176.458C145.575 176.458 145.914 176.512 146.253 176.547C148.109 176.742 155.864 177.183 160.282 171.615C165.225 165.386 171.806 157.693 172.075 157.38L178.772 159.515C178.772 159.515 173.472 157.527 169.954 167.928C169.182 170.109 169.101 172.496 169.723 174.731C170.344 176.965 171.635 178.927 173.403 180.322C174.704 181.317 176.202 181.986 177.784 182.281C177.786 182.285 177.787 182.289 177.787 182.293C177.787 182.297 177.786 182.302 177.784 182.305V186.869L175.045 199.602C174.267 203.199 174.357 206.946 175.305 210.497L179.482 226.075C178.851 226.535 152.936 245.134 135.625 232.289C135.69 231.731 137.829 213.45 136.344 204.504C135.963 202.216 135.704 199.907 135.569 197.589C135.569 197.53 135.569 197.476 135.569 197.418C135.416 195.371 134.504 193.47 133.03 192.129C131.471 190.66 129.359 186.742 131.448 176.39C131.975 173.826 132.753 171.327 133.768 168.932L139.574 155.088L144.925 155.201V155.24C144.461 155.847 138.256 164.025 137.583 169.294C136.924 174.304 136.112 175.841 145.232 176.458Z" fill="#6C63FF"/>
<path d="M183.279 161.949C183.279 161.949 188.514 166.684 190.57 177.433C192.626 188.182 197.206 206.036 197.206 206.036C197.206 206.036 199.063 213.828 192.719 221.521C186.374 229.214 182.156 235.232 182.156 235.232L177.979 241.726C177.266 242.833 176.198 243.63 174.971 243.969C173.068 244.498 170.145 244.88 167.611 243.415C166.688 242.871 165.989 241.987 165.646 240.933C165.304 239.878 165.342 238.727 165.754 237.701L166.682 235.433C166.682 235.433 158.083 241.153 157.335 237.994C156.588 234.836 167.337 231.682 167.337 231.682C167.337 231.682 176.215 230.105 178.011 225.669C178.011 225.669 187.544 212.745 186.797 208.309L177.589 182.271C177.589 182.271 166.074 180.665 170.001 167.017C173.927 153.369 183.279 161.949 183.279 161.949Z" fill="#FDC2CC"/>
<path d="M128.222 260.182C128.222 260.182 149.255 264.619 154.212 264.027L154.746 265.902C154.746 265.902 162.728 267.787 180.777 264.766C181.956 264.57 183.18 264.35 184.448 264.105L184.871 264.027C184.871 264.027 185.117 262.616 185.311 260.212C185.743 254.752 185.896 244.179 182.253 233.357L179.218 223.494C179.218 223.494 160.459 235.36 148.039 234.268C146.93 234.17 145.83 234.077 144.721 234.037C142.173 233.935 138.224 234.037 135.657 231.868L130.274 232.847V249.007C130.272 251.371 129.86 253.715 129.058 255.922C128.942 256.245 128.821 256.564 128.686 256.901C128.192 257.911 128.029 259.065 128.222 260.182Z" fill="#65617D"/>
<path opacity="0.1" d="M154.741 260.873V265.902C154.741 265.902 163.93 268.072 184.866 264.027C184.866 264.027 185.112 262.616 185.307 260.212C178.884 261.299 161.169 263.914 154.741 260.873Z" fill="black"/>
<path opacity="0.1" d="M128.222 260.182C128.222 260.182 149.255 264.619 154.212 264.027L154.746 265.902V260.873C152.351 261.921 135.253 257.572 129.058 255.942C128.942 256.265 128.821 256.583 128.686 256.921C128.196 257.925 128.033 259.071 128.222 260.182Z" fill="black"/>
<path d="M179.213 254.576L180.773 264.781C181.951 264.585 183.175 264.365 184.444 264.12C183.956 261.138 182.893 254.326 183.186 253.195L181.223 251.422L179.213 254.576Z" fill="#65617D"/>
<path opacity="0.1" d="M179.431 254.355L180.991 264.565C182.169 264.366 183.393 264.146 184.662 263.904C184.174 260.922 183.112 254.11 183.404 252.979L181.441 251.201L179.431 254.355Z" fill="black"/>
<g opacity="0.05">
<path opacity="0.05" d="M146.912 234.263C145.807 234.165 144.702 234.072 143.593 234.033C141.115 233.935 137.333 234.033 134.752 232.03L135.652 231.863C138.233 234.023 142.15 233.93 144.716 234.033C145.826 234.072 146.926 234.165 148.035 234.263C148.397 234.297 148.768 234.317 149.144 234.326C148.399 234.347 147.654 234.326 146.912 234.263Z" fill="black"/>
<path opacity="0.05" d="M179.649 264.766C180.828 264.57 182.052 264.351 183.32 264.11L183.747 264.027C183.747 264.027 183.993 262.616 184.184 260.212C184.62 254.752 184.773 244.179 181.125 233.357L178.266 224.052C178.874 223.69 179.195 223.479 179.195 223.479L182.23 233.342C185.873 244.164 185.72 254.737 185.288 260.197C185.093 262.602 184.847 264.012 184.847 264.012L184.425 264.095C183.16 264.337 181.936 264.556 180.754 264.751C172.321 266.162 166.093 266.505 161.842 266.465C167.81 266.37 173.762 265.802 179.649 264.766Z" fill="black"/>
<path opacity="0.05" d="M153.08 264.027V264.08H152.476C152.705 264.064 152.906 264.046 153.08 264.027Z" fill="black"/>
</g>
<path d="M181.826 256.48C182.264 256.48 182.62 255.709 182.62 254.757C182.62 253.805 182.264 253.033 181.826 253.033C181.388 253.033 181.032 253.805 181.032 254.757C181.032 255.709 181.388 256.48 181.826 256.48Z" fill="#D39999"/>
<path d="M131.174 219.851C132.455 209.812 134.715 203.847 135.908 201.511C135.954 201.83 136.075 202.863 136.13 203.181C136.372 204.65 136.158 206.502 136.233 208.367L135.044 231.07L136.636 238.17C138.131 243.792 132.594 239.351 132.594 239.351C131.448 242.015 129.345 241.721 129.345 241.721L129.058 237.646C128.785 233.808 129.111 229.949 130.023 226.222C130.526 224.124 130.911 221.997 131.174 219.851Z" fill="#FDC2CC"/>
<path opacity="0.05" d="M131.174 219.851C132.455 209.812 134.715 203.847 135.908 201.511C135.954 201.83 136.075 202.863 136.13 203.181C136.372 204.65 136.158 206.502 136.233 208.367L135.044 231.07L136.636 238.17C138.131 243.792 132.594 239.351 132.594 239.351C131.448 242.015 129.345 241.721 129.345 241.721L129.058 237.646C128.785 233.808 129.111 229.949 130.023 226.222C130.526 224.124 130.911 221.997 131.174 219.851Z" fill="black"/>
<path d="M184.444 232.098C183.436 233.474 182.884 234.263 182.884 234.263L178.707 240.751C177.997 241.86 176.927 242.657 175.7 242.994C173.797 243.523 170.873 243.91 168.339 242.441C167.417 241.899 166.716 241.015 166.374 239.961C166.031 238.907 166.07 237.757 166.483 236.731L167.411 234.459C167.411 234.459 158.811 240.178 158.064 237.025C157.317 233.871 168.065 230.712 168.065 230.712C168.065 230.712 176.944 229.136 178.74 224.694C178.74 224.694 179.515 223.646 180.596 222.04" fill="#FDC2CC"/>
<path d="M179.213 242.974C179.213 242.974 169.045 241.931 165.824 235.795L164.348 240.864C164.348 240.864 175.022 248.64 177.459 247.631L179.213 242.974Z" fill="#65617D"/>
<path opacity="0.1" d="M178.851 242.926C178.851 242.926 168.687 241.883 165.462 235.742L163.991 240.795C163.991 240.795 174.665 248.572 177.097 247.563L178.851 242.926Z" fill="black"/>
<path d="M132.928 240.11C132.928 240.11 129.369 241.442 128.668 240.702L130.269 243.812L133.295 241.363L132.928 240.11Z" fill="#65617D"/>
<path opacity="0.1" d="M132.928 240.11C132.928 240.11 129.369 241.442 128.668 240.702L130.269 243.812L133.295 241.363L132.928 240.11Z" fill="black"/>
<path opacity="0.1" d="M154.741 260.873V254.385L153.279 261.03L154.741 260.873Z" fill="black"/>
<path opacity="0.1" d="M169.161 126.793C168.302 128.066 166.812 128.713 165.346 128.914C163.879 129.114 162.394 128.943 160.914 128.914C158.593 128.874 156.124 129.251 154.226 130.691C153.015 131.607 152.105 132.895 151.158 134.119C148.29 137.816 144.308 141.278 139.788 140.892C139.394 140.892 139.004 140.808 138.642 140.647C138.279 140.485 137.951 140.249 137.676 139.951C137.308 139.348 137.12 138.642 137.138 137.924C136.943 134.876 137.035 131.815 137.411 128.786C137.593 126.912 138.034 125.075 138.72 123.336C139.528 121.592 140.59 119.993 141.867 118.596C143.411 116.705 145.272 115.132 147.357 113.953C149.464 112.774 151.904 112.442 154.226 113.018C156.932 113.796 159.039 116.03 161.619 117.18C164.566 118.488 172.391 121.979 169.161 126.793Z" fill="black"/>
<path d="M169.161 126.201C168.302 127.474 166.812 128.12 165.346 128.321C163.879 128.522 162.394 128.35 160.914 128.321C158.593 128.277 156.124 128.654 154.226 130.094C153.015 131.009 152.105 132.297 151.158 133.522C148.29 137.219 144.308 140.681 139.788 140.294C139.394 140.295 139.004 140.213 138.641 140.051C138.278 139.89 137.95 139.652 137.676 139.354C137.307 138.751 137.119 138.044 137.138 137.327C136.943 134.279 137.035 131.218 137.411 128.189C137.593 126.314 138.034 124.478 138.72 122.738C139.527 120.996 140.589 119.397 141.867 118.003C143.41 116.11 145.271 114.534 147.357 113.356C149.464 112.177 151.904 111.844 154.226 112.42C156.932 113.199 159.039 115.432 161.619 116.583C164.566 117.895 172.391 121.377 169.161 126.201Z" fill="#865A61"/>
<path d="M135.657 231.858L135.62 233.646L135.239 231.937L135.657 231.858Z" fill="#FDC2CC"/>
<path opacity="0.05" d="M135.657 231.858L135.62 233.646L135.239 231.937L135.657 231.858Z" fill="black"/>
<g opacity="0.05">
<path opacity="0.05" d="M171.449 166.082C167.518 179.73 178.976 181.331 178.976 181.331L188.184 207.368C188.931 211.805 179.394 224.728 179.394 224.728C178.73 226.383 177.074 227.642 175.264 228.572C176.321 227.893 177.172 226.907 177.714 225.732C177.714 225.732 187.247 212.814 186.5 208.377L177.292 182.335C177.292 182.335 165.838 180.734 169.764 167.086C171.077 162.526 173.013 160.45 174.971 159.706C173.621 160.852 172.382 162.835 171.449 166.082Z" fill="black"/>
</g>
<g opacity="0.1">
<path opacity="0.1" d="M171.644 178.481C172.182 179.184 172.806 179.808 173.5 180.337C174.8 181.333 176.298 182.003 177.881 182.296C177.881 182.296 177.881 182.296 177.881 182.32V182.81C176.449 182.49 175.096 181.858 173.908 180.954C173.026 180.271 172.26 179.435 171.644 178.481Z" fill="black"/>
<path opacity="0.1" d="M136.038 198.005C136.038 198.059 136.038 198.118 136.038 198.177C136.182 200.503 136.449 202.82 136.836 205.116C138.228 213.558 136.404 230.32 136.144 232.637C135.996 232.534 135.847 232.436 135.68 232.323C135.75 231.765 137.889 213.485 136.404 204.543C136.024 202.255 135.765 199.946 135.629 197.628C135.629 197.569 135.629 197.511 135.629 197.457C135.537 196.113 135.106 194.819 134.381 193.71C135.343 194.925 135.922 196.427 136.038 198.005Z" fill="black"/>
<path opacity="0.1" d="M144.582 155.754L140.043 155.661C140.039 155.659 140.035 155.658 140.031 155.658C140.027 155.658 140.023 155.659 140.02 155.661L134.218 169.5C133.204 171.895 132.426 174.394 131.898 176.958C130.209 185.332 131.271 189.504 132.562 191.566C131.109 189.759 129.61 185.64 131.48 176.385C131.998 173.82 132.768 171.319 133.778 168.922L139.621 155.083L144.972 155.196V155.23C144.93 155.289 144.786 155.475 144.582 155.754Z" fill="black"/>
<path opacity="0.1" d="M178.786 159.51L178.864 159.534L178.786 159.51Z" fill="black"/>
<path opacity="0.1" d="M177.12 159.431L172.572 157.987H172.549C172.279 158.3 165.703 165.993 160.76 172.222C156.342 177.79 148.596 177.354 146.731 177.159C146.392 177.119 146.048 177.09 145.71 177.066C140.637 176.723 138.641 176.086 137.973 174.735C138.924 175.714 141.017 176.204 145.287 176.478C145.631 176.478 145.969 176.532 146.308 176.566C148.165 176.762 155.92 177.198 160.338 171.635C165.281 165.401 171.862 157.708 172.131 157.394L178.749 159.51C178.216 159.37 177.663 159.343 177.12 159.431Z" fill="black"/>
</g>
<path opacity="0.1" d="M123.27 370.943C123.27 370.943 116.866 372.789 115.626 369.89L123.27 370.943Z" fill="black"/>
<path opacity="0.1" d="M163.93 369.557C163.93 369.557 156.505 371.579 154.787 368.45L163.93 369.557Z" fill="black"/>
<path d="M236.79 415.917C236.79 415.917 235.314 417.386 236.094 418.253" stroke="#3F2B3B" stroke-miterlimit="10"/>
<path opacity="0.1" d="M89.3861 352.883C96.2887 352.883 101.884 351.885 101.884 350.655C101.884 349.424 96.2887 348.427 89.3861 348.427C82.4835 348.427 76.8878 349.424 76.8878 350.655C76.8878 351.885 82.4835 352.883 89.3861 352.883Z" fill="#6C63FF"/>
<path opacity="0.1" d="M40.1495 384.483C47.0521 384.483 52.6478 383.486 52.6478 382.255C52.6478 381.024 47.0521 380.027 40.1495 380.027C33.2469 380.027 27.6512 381.024 27.6512 382.255C27.6512 383.486 33.2469 384.483 40.1495 384.483Z" fill="#6C63FF"/>
<path opacity="0.1" d="M477.947 371.521C484.849 371.521 490.445 370.523 490.445 369.293C490.445 368.062 484.849 367.064 477.947 367.064C471.044 367.064 465.448 368.062 465.448 369.293C465.448 370.523 471.044 371.521 477.947 371.521Z" fill="#6C63FF"/>
</g>
<defs>
<linearGradient id="paint0_linear" x1="223.526" y1="347.839" x2="223.526" y2="58.3821" gradientUnits="userSpaceOnUse">
<stop stop-color="#808080" stop-opacity="0.25"/>
<stop offset="0.54" stop-color="#808080" stop-opacity="0.12"/>
<stop offset="1" stop-color="#808080" stop-opacity="0.1"/>
</linearGradient>
<linearGradient id="paint1_linear" x1="63923.5" y1="233958" x2="63923.5" y2="51257.8" gradientUnits="userSpaceOnUse">
<stop stop-color="#808080" stop-opacity="0.25"/>
<stop offset="0.54" stop-color="#808080" stop-opacity="0.12"/>
<stop offset="1" stop-color="#808080" stop-opacity="0.1"/>
</linearGradient>
<linearGradient id="paint2_linear" x1="84743.5" y1="238172" x2="84743.5" y2="69094.4" gradientUnits="userSpaceOnUse">
<stop stop-color="#808080" stop-opacity="0.25"/>
<stop offset="0.54" stop-color="#808080" stop-opacity="0.12"/>
<stop offset="1" stop-color="#808080" stop-opacity="0.1"/>
</linearGradient>
<linearGradient id="paint3_linear" x1="-48537.6" y1="236152" x2="-48537.6" y2="66383.7" gradientUnits="userSpaceOnUse">
<stop stop-color="#808080" stop-opacity="0.25"/>
<stop offset="0.54" stop-color="#808080" stop-opacity="0.12"/>
<stop offset="1" stop-color="#808080" stop-opacity="0.1"/>
</linearGradient>
<clipPath id="clip0">
<rect width="528" height="421" fill="white"/>
</clipPath>
</defs>
</svg>
