<svg width="918" height="390" viewBox="0 0 918 390" fill="none" xmlns="http://www.w3.org/2000/svg">
<g clip-path="url(#clip0)">
<g opacity="0.5">
<path opacity="0.5" d="M137.119 187.505C212.309 187.505 273.263 146.624 273.263 96.1949C273.263 45.7658 212.309 4.88501 137.119 4.88501C61.9288 4.88501 0.975067 45.7658 0.975067 96.1949C0.975067 146.624 61.9288 187.505 137.119 187.505Z" fill="url(#paint0_linear)"/>
</g>
<path d="M137.119 185.078C210.72 185.078 270.385 145.062 270.385 95.6986C270.385 46.3357 210.72 6.31909 137.119 6.31909C63.5184 6.31909 3.85324 46.3357 3.85324 95.6986C3.85324 145.062 63.5184 185.078 137.119 185.078Z" fill="#F5F5F5"/>
<path d="M137.495 185.33C163.537 185.359 189.015 180.246 210.754 170.628C205.843 152.632 187.153 151.6 187.153 151.6H84.1135C84.1135 151.6 66.4919 152.569 60.9705 169.131C83.3734 179.7 110.105 185.359 137.495 185.33Z" fill="#6C63FF"/>
<path d="M136.097 133.352C168.725 133.352 195.176 115.612 195.176 93.7288C195.176 71.8453 168.725 54.1052 136.097 54.1052C103.468 54.1052 77.0178 71.8453 77.0178 93.7288C77.0178 115.612 103.468 133.352 136.097 133.352Z" fill="#333333"/>
<path opacity="0.1" d="M115.339 129.665H156.561V151.781C156.561 155.446 154.391 158.962 150.526 161.553C146.662 164.145 141.421 165.601 135.956 165.601C130.491 165.601 125.25 164.145 121.386 161.553C117.522 158.962 115.351 155.446 115.351 151.781V129.665H115.339Z" fill="black"/>
<path d="M119.274 128.641H152.626C153.67 128.641 154.671 128.919 155.409 129.414C156.147 129.909 156.562 130.58 156.562 131.28V150.757C156.562 154.422 154.391 157.937 150.526 160.529C146.662 163.121 141.421 164.577 135.956 164.577C130.491 164.577 125.25 163.121 121.386 160.529C117.522 157.937 115.351 154.422 115.351 150.757V131.28C115.351 130.581 115.764 129.911 116.499 129.416C117.235 128.922 118.233 128.643 119.274 128.641Z" fill="#BE7C5E"/>
<path opacity="0.1" d="M115.421 140.104C128.706 143.435 143.331 143.463 156.644 140.183V136.787H115.421V140.104Z" fill="black"/>
<path d="M136.097 141.956C168.725 141.956 195.176 124.216 195.176 102.333C195.176 80.4491 168.725 62.709 136.097 62.709C103.468 62.709 77.0178 80.4491 77.0178 102.333C77.0178 124.216 103.468 141.956 136.097 141.956Z" fill="#BE7C5E"/>
<path d="M100.302 85.9917C100.995 84.2819 101.864 82.3989 104.155 81.5085C105.964 80.7994 108.208 80.9097 110.299 80.9806C126.628 81.5794 142.817 79.0818 158.7 76.4738C167.781 74.9847 177.496 73.1725 183.37 68.2639C189.244 63.3553 181.584 47.9282 172.644 46.1081C166.77 44.9026 159.957 47.1482 154.388 45.3833C151.909 44.5954 150.089 43.122 147.95 41.9716C143.569 39.6079 137.941 38.6546 132.49 37.7564C126.123 36.7006 119.239 35.6684 113.189 37.3624C108.49 38.6703 105.06 41.4359 100.607 43.0747C92.1372 46.2263 81.8109 44.7608 72.1073 44.7451C68.8297 44.7451 64.9177 45.1863 63.6137 47.2033C62.7327 48.5743 63.4375 50.1343 63.5315 51.6234C63.8134 56.3508 57.9983 60.0303 53.1231 63.442C48.2478 66.8536 43.6427 71.7228 46.7206 75.9617C47.8953 77.5769 50.0452 78.7982 51.2669 80.3976C53.3698 83.171 52.3125 86.5196 53.0761 89.5845C53.8406 91.9102 55.1364 94.1427 56.9176 96.2029C60.5359 100.93 78.7095 126.38 87.0622 119.911C91.1034 116.759 91.7612 107.651 93.3941 103.554C95.6497 97.6658 97.9523 91.8117 100.302 85.9917Z" fill="#333333"/>
<path d="M94.0638 107.801C97.1002 107.801 99.5617 104.707 99.5617 100.891C99.5617 97.0746 97.1002 93.981 94.0638 93.981C91.0274 93.981 88.5659 97.0746 88.5659 100.891C88.5659 104.707 91.0274 107.801 94.0638 107.801Z" fill="#BE7C5E"/>
<g opacity="0.5">
<path opacity="0.5" d="M452.38 386.237C527.57 386.237 588.524 345.356 588.524 294.927C588.524 244.498 527.57 203.617 452.38 203.617C377.19 203.617 316.236 244.498 316.236 294.927C316.236 345.356 377.19 386.237 452.38 386.237Z" fill="url(#paint1_linear)"/>
</g>
<path d="M452.639 383.724C526.239 383.724 585.905 343.707 585.905 294.344C585.905 244.981 526.239 204.965 452.639 204.965C379.038 204.965 319.373 244.981 319.373 294.344C319.373 343.707 379.038 383.724 452.639 383.724Z" fill="#F5F5F5"/>
<path d="M452.756 384.078C478.782 384.101 504.243 378.988 525.968 369.376C521.057 351.38 502.367 350.348 502.367 350.348H399.363C399.363 350.348 381.741 351.317 376.22 367.879C398.626 378.449 425.362 384.108 452.756 384.078Z" fill="#6C63FF"/>
<path d="M451.346 335.607C486.875 335.607 515.677 316.29 515.677 292.461C515.677 268.633 486.875 249.316 451.346 249.316C415.818 249.316 387.016 268.633 387.016 292.461C387.016 316.29 415.818 335.607 451.346 335.607Z" fill="#F55F44"/>
<path opacity="0.1" d="M430.588 328.397H471.811V350.514C471.811 354.179 469.64 357.694 465.776 360.286C461.911 362.878 456.67 364.334 451.205 364.334C445.74 364.334 440.499 362.878 436.635 360.286C432.771 357.694 430.6 354.179 430.6 350.514V328.397H430.588Z" fill="black"/>
<path d="M434.524 327.373H467.875C468.392 327.373 468.904 327.441 469.381 327.574C469.859 327.707 470.293 327.901 470.658 328.146C471.024 328.391 471.313 328.682 471.511 329.002C471.709 329.323 471.811 329.666 471.811 330.013V349.489C471.811 351.304 471.278 353.101 470.242 354.778C469.207 356.455 467.689 357.978 465.776 359.261C463.862 360.545 461.591 361.563 459.091 362.257C456.591 362.952 453.911 363.309 451.205 363.309C448.499 363.309 445.82 362.952 443.32 362.257C440.82 361.563 438.548 360.545 436.635 359.261C434.722 357.978 433.204 356.455 432.168 354.778C431.133 353.101 430.6 351.304 430.6 349.489V330.013C430.6 329.312 431.015 328.641 431.753 328.146C432.491 327.651 433.492 327.373 434.535 327.373H434.524Z" fill="#FDA57D"/>
<path opacity="0.1" d="M430.67 338.837C443.956 342.167 458.58 342.195 471.893 338.916V335.52H430.67V338.837Z" fill="black"/>
<path d="M451.346 340.689C483.975 340.689 510.425 322.948 510.425 301.065C510.425 279.181 483.975 261.441 451.346 261.441C418.718 261.441 392.267 279.181 392.267 301.065C392.267 322.948 418.718 340.689 451.346 340.689Z" fill="#FDA57D"/>
<path d="M451.264 264.522C464.396 264.522 475.041 257.382 475.041 248.575C475.041 239.768 464.396 232.628 451.264 232.628C438.132 232.628 427.487 239.768 427.487 248.575C427.487 257.382 438.132 264.522 451.264 264.522Z" fill="#F55F44"/>
<path d="M451.264 243.343C459.887 243.343 466.877 238.655 466.877 232.872C466.877 227.089 459.887 222.401 451.264 222.401C442.642 222.401 435.651 227.089 435.651 232.872C435.651 238.655 442.642 243.343 451.264 243.343Z" fill="#F55F44"/>
<path d="M440.95 257.321C435.371 255.642 430.971 252.587 428.663 248.79C426.355 244.993 426.317 240.745 428.556 236.93C428.391 237.15 428.227 237.379 428.074 237.607C426.796 239.518 426.092 241.58 426.001 243.673C425.911 245.767 426.436 247.852 427.547 249.809C428.658 251.767 430.333 253.558 432.477 255.082C434.62 256.605 437.19 257.83 440.039 258.688C442.889 259.545 445.962 260.017 449.084 260.078C452.205 260.139 455.314 259.786 458.233 259.041C461.151 258.296 463.823 257.172 466.094 255.735C468.365 254.297 470.192 252.574 471.47 250.663C471.623 250.434 471.764 250.206 471.905 249.969C469.145 253.63 464.388 256.436 458.623 257.805C452.858 259.174 446.529 259 440.95 257.321Z" fill="#F55F44"/>
<path opacity="0.1" d="M409.278 265.026C409.278 265.026 434.171 298.906 504.434 279.209L488.081 262.009L459.1 255.028L409.278 265.026Z" fill="black"/>
<path d="M409.278 264.522C409.278 264.522 434.171 298.402 504.434 278.704L488.081 261.504L459.1 254.523L409.278 264.522Z" fill="#F55F44"/>
<path d="M428.462 252.184C443.781 251.376 459.171 251.376 474.489 252.184C474.489 252.184 440.492 254.303 428.462 252.184Z" fill="#333333"/>
<path d="M454.835 221.762C453.654 221.733 452.472 221.794 451.311 221.944H452.216C456.061 222.026 459.725 223.059 462.504 224.843C465.283 226.627 466.982 229.036 467.273 231.609C467.564 234.182 466.428 236.736 464.083 238.781C461.737 240.826 458.348 242.218 454.565 242.689C458.703 242.714 462.686 241.636 465.638 239.691C468.59 237.747 470.27 235.095 470.307 232.32C470.345 229.545 468.737 226.874 465.837 224.894C462.938 222.914 458.985 221.788 454.847 221.762H454.835Z" fill="#F55F44"/>
<path d="M392.256 307.935C395.292 307.935 397.753 304.842 397.753 301.026C397.753 297.209 395.292 294.116 392.256 294.116C389.219 294.116 386.758 297.209 386.758 301.026C386.758 304.842 389.219 307.935 392.256 307.935Z" fill="#FDA57D"/>
<path d="M510.426 307.935C513.462 307.935 515.923 304.842 515.923 301.026C515.923 297.209 513.462 294.116 510.426 294.116C507.389 294.116 504.928 297.209 504.928 301.026C504.928 304.842 507.389 307.935 510.426 307.935Z" fill="#FDA57D"/>
<path d="M405.554 265.523L417.078 261.536L419.675 267.926L412.614 271.149L405.554 265.523Z" fill="#F55F44"/>
<g opacity="0.5">
<path opacity="0.5" d="M452.251 183.022C527.441 183.022 588.395 142.141 588.395 91.7117C588.395 41.2827 527.441 0.401855 452.251 0.401855C377.061 0.401855 316.107 41.2827 316.107 91.7117C316.107 142.141 377.061 183.022 452.251 183.022Z" fill="url(#paint2_linear)"/>
</g>
<path d="M452.251 180.595C525.852 180.595 585.517 140.578 585.517 91.2152C585.517 41.8523 525.852 1.83569 452.251 1.83569C378.65 1.83569 318.985 41.8523 318.985 91.2152C318.985 140.578 378.65 180.595 452.251 180.595Z" fill="#F5F5F5"/>
<path d="M400.267 92.0112C400.267 92.0112 385.16 141.933 376.913 139.167C376.913 139.167 456.445 185.244 526.673 139.167C526.673 139.167 514.302 103.987 496.446 92.0112H400.267Z" fill="#333333"/>
<path d="M452.627 180.863C478.669 180.892 504.147 175.778 525.885 166.161C520.975 148.165 502.284 147.133 502.284 147.133H399.234C399.234 147.133 381.612 148.102 376.091 164.664C398.497 175.234 425.233 180.893 452.627 180.863Z" fill="#6C63FF"/>
<path d="M451.217 128.869C483.846 128.869 510.296 111.129 510.296 89.2456C510.296 67.3621 483.846 49.6221 451.217 49.6221C418.589 49.6221 392.138 67.3621 392.138 89.2456C392.138 111.129 418.589 128.869 451.217 128.869Z" fill="#333333"/>
<path opacity="0.1" d="M430.459 125.182H471.682V147.298C471.682 150.959 469.516 154.471 465.659 157.062C461.802 159.653 456.57 161.112 451.111 161.118C445.647 161.118 440.405 159.662 436.541 157.07C432.677 154.479 430.506 150.963 430.506 147.298V125.182H430.459Z" fill="black"/>
<path d="M434.394 124.157H467.746C468.79 124.157 469.791 124.436 470.529 124.931C471.267 125.426 471.682 126.097 471.682 126.797V146.274C471.682 149.935 469.516 153.447 465.659 156.038C461.802 158.629 456.57 160.087 451.111 160.094C445.647 160.094 440.405 158.638 436.541 156.046C432.677 153.454 430.506 149.939 430.506 146.274V126.789C430.509 126.096 430.919 125.431 431.646 124.939C432.374 124.446 433.361 124.166 434.394 124.157Z" fill="#BE7C5E"/>
<path opacity="0.1" d="M430.541 135.622C443.826 138.952 458.451 138.98 471.764 135.7V132.304H430.541V135.622Z" fill="black"/>
<path d="M451.217 137.465C483.846 137.465 510.296 119.725 510.296 97.8418C510.296 75.9583 483.846 58.2183 451.217 58.2183C418.589 58.2183 392.138 75.9583 392.138 97.8418C392.138 119.725 418.589 137.465 451.217 137.465Z" fill="#BE7C5E"/>
<path d="M394.746 82.7928H507.406C507.406 82.7928 497.785 52.2853 455.2 54.2314C412.614 56.1775 394.746 82.7928 394.746 82.7928Z" fill="#333333"/>
<path d="M393.36 103.065C396.396 103.065 398.858 99.9717 398.858 96.1555C398.858 92.3393 396.396 89.2456 393.36 89.2456C390.323 89.2456 387.862 92.3393 387.862 96.1555C387.862 99.9717 390.323 103.065 393.36 103.065Z" fill="#BE7C5E"/>
<path d="M508.769 103.065C511.805 103.065 514.267 99.9717 514.267 96.1555C514.267 92.3393 511.805 89.2456 508.769 89.2456C505.733 89.2456 503.271 92.3393 503.271 96.1555C503.271 99.9717 505.733 103.065 508.769 103.065Z" fill="#BE7C5E"/>
<path opacity="0.1" d="M394.746 83.817H507.406C507.406 83.817 497.785 53.3094 455.2 55.2556C412.614 57.2017 394.746 83.817 394.746 83.817Z" fill="black"/>
<g opacity="0.5">
<path opacity="0.5" d="M776.793 182.62C851.983 182.62 912.937 141.739 912.937 91.3099C912.937 40.8808 851.983 0 776.793 0C701.602 0 640.649 40.8808 640.649 91.3099C640.649 141.739 701.602 182.62 776.793 182.62Z" fill="url(#paint3_linear)"/>
</g>
<path d="M777.051 180.099C850.652 180.099 910.317 140.082 910.317 90.7191C910.317 41.3562 850.652 1.3396 777.051 1.3396C703.451 1.3396 643.785 41.3562 643.785 90.7191C643.785 140.082 703.451 180.099 777.051 180.099Z" fill="#F5F5F5"/>
<path d="M777.169 180.461C803.211 180.49 828.689 175.377 850.427 165.759C845.505 147.755 826.826 146.723 826.826 146.723H723.787C723.787 146.723 706.166 147.692 700.644 164.254C723.046 174.826 749.777 180.487 777.169 180.461Z" fill="#6C63FF"/>
<path d="M775.771 131.981C811.299 131.981 840.101 112.664 840.101 88.8359C840.101 65.0073 811.299 45.6904 775.771 45.6904C740.242 45.6904 711.44 65.0073 711.44 88.8359C711.44 112.664 740.242 131.981 775.771 131.981Z" fill="#72351C"/>
<path opacity="0.1" d="M755.001 124.772H796.223V146.888C796.228 148.705 795.699 150.505 794.665 152.184C793.632 153.864 792.115 155.39 790.201 156.676C788.287 157.961 786.014 158.982 783.512 159.678C781.009 160.374 778.327 160.732 775.618 160.732C770.153 160.732 764.912 159.276 761.048 156.684C757.183 154.092 755.013 150.577 755.013 146.912V124.772H755.001Z" fill="black"/>
<path d="M758.901 123.748H792.253C793.296 123.748 794.297 124.026 795.035 124.521C795.774 125.016 796.188 125.687 796.188 126.387V145.864C796.188 149.529 794.017 153.044 790.153 155.636C786.289 158.228 781.048 159.684 775.583 159.684C770.118 159.684 764.877 158.228 761.012 155.636C757.148 153.044 754.977 149.529 754.977 145.864V126.387C754.977 125.687 755.392 125.016 756.13 124.521C756.868 124.026 757.869 123.748 758.913 123.748H758.901Z" fill="#FDA57D"/>
<path opacity="0.1" d="M755.048 135.212C768.333 138.542 782.957 138.57 796.27 135.291V131.895H755.048V135.212Z" fill="black"/>
<path d="M775.771 137.063C808.399 137.063 834.85 119.323 834.85 97.4397C834.85 75.5562 808.399 57.8162 775.771 57.8162C743.142 57.8162 716.692 75.5562 716.692 97.4397C716.692 119.323 743.142 137.063 775.771 137.063Z" fill="#FDA57D"/>
<path opacity="0.1" d="M733.69 61.4013C733.69 61.4013 758.584 95.2811 828.847 75.5835L812.494 58.3836L783.512 51.4028L733.69 61.4013Z" fill="black"/>
<path d="M733.69 60.9047C733.69 60.9047 758.584 94.7845 828.847 75.0869L812.494 57.8871L783.512 50.9062L733.69 60.9047Z" fill="#72351C"/>
<path d="M733.467 58.612C735.146 55.127 738.046 51.963 741.926 49.3857C753.544 41.68 772.599 40.0569 782.373 31.2639C782.904 31.8862 783.235 32.5763 783.343 33.2896C783.452 34.0029 783.337 34.7236 783.005 35.4051C782.673 36.0867 782.131 36.714 781.415 37.2465C780.699 37.779 779.825 38.205 778.849 38.4968C788.247 38.4575 799.066 37.9059 804.353 32.7373C805.661 34.7798 806.079 37.0293 805.557 39.2245C805.035 41.4198 803.595 43.4706 801.404 45.1389C809.698 45.391 818.556 49.165 819.096 54.7276C819.449 58.4308 815.995 61.9369 811.448 64.0642C806.902 66.1916 801.428 67.1449 796.024 67.9328C780.258 70.2965 723.176 80.0744 733.467 58.612Z" fill="#72351C"/>
<path d="M834.85 97.7861H833.287L802.814 115.995C773.445 106.776 751.899 115.995 751.899 115.995L719.946 98.5504L716.727 98.8183C717.163 109.218 723.68 119.086 734.871 126.291C746.062 133.495 761.029 137.459 776.54 137.325C792.052 137.192 806.862 132.972 817.774 125.577C828.686 118.182 834.824 108.206 834.862 97.8019L834.85 97.7861ZM775.688 122.96C764.199 122.96 754.883 121.384 754.883 119.469C754.883 117.555 764.199 115.979 775.688 115.979C787.178 115.979 796.494 117.555 796.494 119.469C796.494 121.384 787.178 122.96 775.677 122.96H775.688Z" fill="#72351C"/>
<path d="M716.668 104.31C719.704 104.31 722.166 101.217 722.166 97.4004C722.166 93.5841 719.704 90.4905 716.668 90.4905C713.632 90.4905 711.17 93.5841 711.17 97.4004C711.17 101.217 713.632 104.31 716.668 104.31Z" fill="#FDA57D"/>
<path d="M834.838 104.31C837.874 104.31 840.336 101.217 840.336 97.4004C840.336 93.5841 837.874 90.4905 834.838 90.4905C831.802 90.4905 829.34 93.5841 829.34 97.4004C829.34 101.217 831.802 104.31 834.838 104.31Z" fill="#FDA57D"/>
<g opacity="0.5">
<path opacity="0.5" d="M136.144 380.257C211.334 380.257 272.288 339.376 272.288 288.947C272.288 238.518 211.334 197.637 136.144 197.637C60.9538 197.637 0 238.518 0 288.947C0 339.376 60.9538 380.257 136.144 380.257Z" fill="url(#paint4_linear)"/>
</g>
<path d="M136.402 377.743C210.003 377.743 269.668 337.727 269.668 288.364C269.668 239.001 210.003 198.984 136.402 198.984C62.8018 198.984 3.13666 239.001 3.13666 288.364C3.13666 337.727 62.8018 377.743 136.402 377.743Z" fill="#F5F5F5"/>
<path d="M136.52 378.098C162.558 378.125 188.032 373.012 209.767 363.396C204.856 345.4 186.166 344.368 186.166 344.368H83.0797C83.0797 344.368 65.4582 345.337 59.9367 361.899C82.356 372.476 109.11 378.135 136.52 378.098Z" fill="#6C63FF"/>
<path d="M135.11 329.626C170.639 329.626 199.441 310.31 199.441 286.481C199.441 262.652 170.639 243.335 135.11 243.335C99.5815 243.335 70.7798 262.652 70.7798 286.481C70.7798 310.31 99.5815 329.626 135.11 329.626Z" fill="#333333"/>
<path opacity="0.1" d="M114.352 322.417H155.575V344.533C155.575 348.199 153.404 351.714 149.54 354.305C145.675 356.897 140.434 358.353 134.969 358.353C129.504 358.353 124.263 356.897 120.399 354.305C116.535 351.714 114.364 348.199 114.364 344.533V322.417H114.352Z" fill="black"/>
<path d="M118.288 321.393H151.639C152.683 321.393 153.684 321.671 154.422 322.166C155.16 322.661 155.575 323.333 155.575 324.033V343.525C155.575 347.19 153.404 350.706 149.54 353.297C145.675 355.889 140.434 357.345 134.969 357.345C132.262 357.346 129.582 356.989 127.08 356.295C124.579 355.601 122.306 354.583 120.391 353.3C118.477 352.017 116.958 350.493 115.922 348.816C114.885 347.138 114.352 345.341 114.352 343.525V324.025C114.352 323.325 114.767 322.653 115.505 322.158C116.243 321.663 117.244 321.385 118.288 321.385V321.393Z" fill="#FDB797"/>
<path opacity="0.1" d="M114.434 332.856C127.719 336.186 142.344 336.214 155.657 332.935V329.516H114.434V332.856Z" fill="black"/>
<path d="M135.11 334.708C167.739 334.708 194.189 316.968 194.189 295.084C194.189 273.201 167.739 255.461 135.11 255.461C102.482 255.461 76.0311 273.201 76.0311 295.084C76.0311 316.968 102.482 334.708 135.11 334.708Z" fill="#FDB797"/>
<path opacity="0.1" d="M93.0417 259.038C93.0417 259.038 117.935 292.918 188.198 273.22L171.845 256.02L142.864 249.04L93.0417 259.038Z" fill="black"/>
<path d="M93.0417 258.542C93.0417 258.542 117.935 292.422 188.198 272.724L171.845 255.524L142.864 248.543L93.0417 258.542Z" fill="#333333"/>
<path d="M92.8185 256.242C94.4968 252.757 97.3974 249.593 101.277 247.015C112.895 239.31 131.95 237.687 141.724 228.894C142.255 229.516 142.586 230.206 142.695 230.919C142.804 231.633 142.688 232.353 142.356 233.035C142.024 233.716 141.483 234.344 140.767 234.876C140.051 235.409 139.176 235.835 138.2 236.126C147.598 236.087 158.418 235.536 163.704 230.367C165.012 232.409 165.43 234.659 164.908 236.854C164.386 239.049 162.946 241.1 160.755 242.768C169.049 243.021 177.907 246.795 178.447 252.357C178.8 256.06 175.346 259.567 170.8 261.694C166.253 263.821 160.767 264.79 155.363 265.594C139.598 267.942 82.5275 277.72 92.8185 256.242Z" fill="#333333"/>
<path d="M76.0076 301.955C79.044 301.955 81.5055 298.861 81.5055 295.045C81.5055 291.229 79.044 288.135 76.0076 288.135C72.9711 288.135 70.5096 291.229 70.5096 295.045C70.5096 298.861 72.9711 301.955 76.0076 301.955Z" fill="#FDB797"/>
<path d="M194.178 301.955C197.214 301.955 199.676 298.861 199.676 295.045C199.676 291.229 197.214 288.135 194.178 288.135C191.141 288.135 188.68 291.229 188.68 295.045C188.68 298.861 191.141 301.955 194.178 301.955Z" fill="#FDB797"/>
<g opacity="0.5">
<path opacity="0.5" d="M781.868 390.381C857.058 390.381 918.012 349.501 918.012 299.072C918.012 248.643 857.058 207.762 781.868 207.762C706.677 207.762 645.724 248.643 645.724 299.072C645.724 349.501 706.677 390.381 781.868 390.381Z" fill="url(#paint5_linear)"/>
</g>
<path d="M781.868 387.954C855.468 387.954 915.134 347.938 915.134 298.575C915.134 249.212 855.468 209.195 781.868 209.195C708.267 209.195 648.602 249.212 648.602 298.575C648.602 347.938 708.267 387.954 781.868 387.954Z" fill="#F5F5F5"/>
<path d="M782.244 388.223C808.286 388.252 833.764 383.138 855.502 373.521C850.592 355.525 831.901 354.493 831.901 354.493H728.85C728.85 354.493 711.229 355.462 705.707 372.024C728.114 382.594 754.85 388.253 782.244 388.223Z" fill="#6C63FF"/>
<path opacity="0.1" d="M760.076 332.542H801.299V354.658C801.299 358.323 799.128 361.838 795.263 364.43C791.399 367.022 786.158 368.478 780.693 368.478C777.986 368.479 775.305 368.122 772.804 367.428C770.303 366.734 768.03 365.716 766.115 364.433C764.2 363.149 762.682 361.626 761.645 359.948C760.609 358.271 760.076 356.473 760.076 354.658V332.542Z" fill="black"/>
<path d="M764.011 331.518H797.363C798.407 331.518 799.408 331.796 800.146 332.291C800.884 332.786 801.299 333.457 801.299 334.157V353.634C801.299 357.299 799.128 360.814 795.263 363.406C791.399 365.998 786.158 367.454 780.693 367.454C777.986 367.455 775.305 367.098 772.804 366.404C770.303 365.71 768.03 364.692 766.115 363.409C764.2 362.125 762.682 360.602 761.645 358.924C760.609 357.247 760.076 355.449 760.076 353.634V334.157C760.076 333.457 760.49 332.786 761.228 332.291C761.966 331.796 762.967 331.518 764.011 331.518Z" fill="#FDB797"/>
<path opacity="0.1" d="M760.158 342.981C773.443 346.311 788.067 346.339 801.381 343.06V339.664H760.158V342.981Z" fill="black"/>
<path d="M780.834 344.833C813.462 344.833 839.913 327.093 839.913 305.209C839.913 283.326 813.462 265.586 780.834 265.586C748.205 265.586 721.755 283.326 721.755 305.209C721.755 327.093 748.205 344.833 780.834 344.833Z" fill="#FDB797"/>
<path d="M722.977 310.425C726.013 310.425 728.474 307.332 728.474 303.515C728.474 299.699 726.013 296.605 722.977 296.605C719.94 296.605 717.479 299.699 717.479 303.515C717.479 307.332 719.94 310.425 722.977 310.425Z" fill="#FDB797"/>
<path d="M838.386 310.425C841.422 310.425 843.884 307.332 843.884 303.515C843.884 299.699 841.422 296.605 838.386 296.605C835.349 296.605 832.888 299.699 832.888 303.515C832.888 307.332 835.349 310.425 838.386 310.425Z" fill="#FDB797"/>
<path d="M764.998 305.398H749.949C747.127 305.398 744.839 306.933 744.839 308.826V310.449C744.839 312.342 747.127 313.876 749.949 313.876H764.998C767.82 313.876 770.108 312.342 770.108 310.449V308.826C770.108 306.933 767.82 305.398 764.998 305.398Z" stroke="#333333" stroke-width="2" stroke-miterlimit="10"/>
<path d="M796.682 313.868H811.73C814.553 313.868 816.841 312.334 816.841 310.441V308.818C816.841 306.925 814.553 305.39 811.73 305.39H796.682C793.859 305.39 791.571 306.925 791.571 308.818V310.441C791.571 312.334 793.859 313.868 796.682 313.868Z" stroke="#333333" stroke-width="2" stroke-miterlimit="10"/>
<path d="M769.145 306.218C769.145 306.218 777.157 303.303 792.053 306.218" stroke="#333333" stroke-width="2" stroke-miterlimit="10"/>
<path d="M821.681 276.49L836.177 299.079C836.177 299.079 853.905 284.094 821.681 276.49Z" fill="#858585"/>
<path d="M816.841 309.637L838.48 296.676" stroke="#333333" stroke-width="2" stroke-linecap="round" stroke-linejoin="round"/>
<path d="M740.011 276.49L725.514 299.079C725.514 299.079 707.787 284.094 740.011 276.49Z" fill="#858585"/>
<path d="M744.839 309.637L722.906 296.676" stroke="#333333" stroke-width="2" stroke-linecap="round" stroke-linejoin="round"/>
</g>
<defs>
<linearGradient id="paint0_linear" x1="137.119" y1="187.505" x2="137.119" y2="4.89289" gradientUnits="userSpaceOnUse">
<stop stop-color="#808080" stop-opacity="0.25"/>
<stop offset="0.54" stop-color="#808080" stop-opacity="0.12"/>
<stop offset="1" stop-color="#808080" stop-opacity="0.1"/>
</linearGradient>
<linearGradient id="paint1_linear" x1="105169" y1="89725.7" x2="105169" y2="47399.9" gradientUnits="userSpaceOnUse">
<stop stop-color="#808080" stop-opacity="0.25"/>
<stop offset="0.54" stop-color="#808080" stop-opacity="0.12"/>
<stop offset="1" stop-color="#808080" stop-opacity="0.1"/>
</linearGradient>
<linearGradient id="paint2_linear" x1="105139" y1="42421.1" x2="105139" y2="93.538" gradientUnits="userSpaceOnUse">
<stop stop-color="#808080" stop-opacity="0.25"/>
<stop offset="0.54" stop-color="#808080" stop-opacity="0.12"/>
<stop offset="1" stop-color="#808080" stop-opacity="0.1"/>
</linearGradient>
<linearGradient id="paint3_linear" x1="180686" y1="42325.8" x2="180686" y2="0" gradientUnits="userSpaceOnUse">
<stop stop-color="#808080" stop-opacity="0.25"/>
<stop offset="0.54" stop-color="#808080" stop-opacity="0.12"/>
<stop offset="1" stop-color="#808080" stop-opacity="0.1"/>
</linearGradient>
<linearGradient id="paint4_linear" x1="31555.5" y1="88333.6" x2="31555.5" y2="46007.8" gradientUnits="userSpaceOnUse">
<stop stop-color="#808080" stop-opacity="0.25"/>
<stop offset="0.54" stop-color="#808080" stop-opacity="0.12"/>
<stop offset="1" stop-color="#808080" stop-opacity="0.1"/>
</linearGradient>
<linearGradient id="paint5_linear" x1="181867" y1="90690.3" x2="181867" y2="48364.6" gradientUnits="userSpaceOnUse">
<stop stop-color="#808080" stop-opacity="0.25"/>
<stop offset="0.54" stop-color="#808080" stop-opacity="0.12"/>
<stop offset="1" stop-color="#808080" stop-opacity="0.1"/>
</linearGradient>
<clipPath id="clip0">
<rect width="918" height="596" fill="white"/>
</clipPath>
</defs>
</svg>
